<svg width="353" height="562" viewBox="0 0 353 562" fill="none" xmlns="http://www.w3.org/2000/svg">
<g filter="url(#filter0_d_142_236)">
<path d="M224.618 554H74.5573C58.2888 554 45.0532 532.792 45.0532 506.724V47.2758C45.0532 21.208 58.2888 0 74.5573 0H224.618C240.886 0 254.121 21.208 254.121 47.2758V506.724C254.121 532.792 240.886 554 224.618 554Z" fill="#F2F2F2"/>
<path d="M254.121 169C253.433 169 252.873 169.897 252.873 171V235C252.873 236.103 253.433 237 254.121 237C254.81 237 255.37 236.103 255.37 235V171C255.37 169.897 254.81 169 254.121 169Z" fill="#F2F2F2"/>
<path d="M251.313 47.276V506.716C251.313 529.406 240.292 547.966 226.356 549.406H226.35C226.144 549.426 225.938 549.446 225.726 549.456C225.358 549.486 224.989 549.496 224.615 549.496C224.615 549.496 223.242 549.336 220.733 549.036C218.199 548.736 214.511 548.286 209.911 547.696C208.532 547.526 207.078 547.336 205.543 547.136C202.485 546.736 199.127 546.296 195.526 545.796C194.091 545.606 192.606 545.396 191.089 545.186C183.338 544.116 174.657 542.866 165.502 541.446C163.954 541.216 162.394 540.976 160.821 540.726C160.409 540.656 159.991 540.596 159.573 540.526C153.045 539.496 146.336 538.386 139.602 537.206C139.184 537.136 138.766 537.066 138.354 536.996C126.752 534.946 115.107 532.716 104.21 530.316C95.8289 528.476 87.8906 526.536 80.7635 524.526C78.4419 523.866 76.2077 523.206 74.0733 522.536C73.6552 522.406 73.2371 522.276 72.8252 522.136C57.7411 517.296 47.8618 512.076 47.8618 506.716V47.276C47.8618 23.6461 59.813 4.49609 74.5601 4.49609H90.4992C93.0455 4.49609 95.0925 7.67608 95.3109 11.7461C95.3296 12.0161 95.3484 12.2861 95.3796 12.5561C95.8414 16.6461 98.1817 19.4961 100.778 19.4961H198.397C200.993 19.4961 203.334 16.6461 203.795 12.5561C203.827 12.2861 203.845 12.0161 203.864 11.7461C204.083 7.67608 206.129 4.49609 208.676 4.49609H224.615C239.362 4.49609 251.313 23.6461 251.313 47.276Z" fill="white"/>
<path d="M44.4293 121C43.7409 121 43.1812 121.897 43.1812 123V139C43.1812 140.103 43.7409 141 44.4293 141C45.1177 141 45.6775 140.103 45.6775 139V123C45.6775 121.897 45.1177 121 44.4293 121Z" fill="#F2F2F2"/>
<path d="M44.4293 169C43.7409 169 43.1812 169.897 43.1812 171V202C43.1812 203.103 43.7409 204 44.4293 204C45.1177 204 45.6775 203.103 45.6775 202V171C45.6775 169.897 45.1177 169 44.4293 169Z" fill="#F2F2F2"/>
<path d="M44.4293 213C43.7409 213 43.1812 213.897 43.1812 215V246C43.1812 247.103 43.7409 248 44.4293 248C45.1177 248 45.6775 247.103 45.6775 246V215C45.6775 213.897 45.1177 213 44.4293 213Z" fill="#F2F2F2"/>
<path d="M89.0513 11.5H67.2084C66.519 11.5 65.9602 12.3954 65.9602 13.5V14.5C65.9602 15.6046 66.519 16.5 67.2084 16.5H89.0513C89.7407 16.5 90.2995 15.6046 90.2995 14.5V13.5C90.2995 12.3954 89.7407 11.5 89.0513 11.5Z" fill="#F2F2F2"/>
<path d="M212.62 16.5C213.999 16.5 215.116 14.7091 215.116 12.5C215.116 10.2909 213.999 8.5 212.62 8.5C211.241 8.5 210.124 10.2909 210.124 12.5C210.124 14.7091 211.241 16.5 212.62 16.5Z" fill="#F2F2F2"/>
<path d="M219.485 16.5C220.864 16.5 221.981 14.7091 221.981 12.5C221.981 10.2909 220.864 8.5 219.485 8.5C218.106 8.5 216.989 10.2909 216.989 12.5C216.989 14.7091 218.106 16.5 219.485 16.5Z" fill="#F2F2F2"/>
<path d="M226.35 16.5C227.729 16.5 228.846 14.7091 228.846 12.5C228.846 10.2909 227.729 8.5 226.35 8.5C224.971 8.5 223.854 10.2909 223.854 12.5C223.854 14.7091 224.971 16.5 226.35 16.5Z" fill="#F2F2F2"/>
<path d="M78.073 157.426C84.7627 157.426 90.1858 148.919 90.1858 138.426C90.1858 127.932 84.7627 119.426 78.073 119.426C71.3833 119.426 65.9602 127.932 65.9602 138.426C65.9602 148.919 71.3833 157.426 78.073 157.426Z" fill="#6C63FF"/>
<path d="M175.176 131.926H109.978C107.741 131.926 105.921 129.01 105.921 125.426C105.921 121.842 107.741 118.926 109.978 118.926H175.176C177.413 118.926 179.233 121.842 179.233 125.426C179.233 129.01 177.413 131.926 175.176 131.926Z" fill="#E6E6E6"/>
<path d="M70.3633 351.877C69.3226 351.877 68.4761 353.233 68.4761 354.9C68.4761 356.568 69.3226 357.925 70.3633 357.925H138.652C139.693 357.925 140.539 356.568 140.539 354.9C140.539 353.233 139.693 351.877 138.652 351.877H70.3633Z" fill="#F2F2F2"/>
<path d="M226.057 153.926H109.978C107.741 153.926 105.921 151.01 105.921 147.426C105.921 143.842 107.741 140.926 109.978 140.926H226.057C228.294 140.926 230.114 143.842 230.114 147.426C230.114 151.01 228.294 153.926 226.057 153.926Z" fill="#E6E6E6"/>
<path d="M93.576 61.9258H68.7684C67.0479 61.9258 65.6479 59.6826 65.6479 56.9258C65.6479 54.1689 67.0479 51.9258 68.7684 51.9258H93.576C95.2965 51.9258 96.6961 54.1689 96.6961 56.9258C96.6961 59.6826 95.2965 61.9258 93.576 61.9258Z" fill="#E6E6E6"/>
<path d="M225.745 52.4258H200.938C199.387 52.4258 198.13 54.4405 198.13 56.9258C198.13 59.4111 199.387 61.4258 200.938 61.4258H225.745C227.296 61.4258 228.554 59.4111 228.554 56.9258C228.554 54.4405 227.296 52.4258 225.745 52.4258Z" fill="#6C63FF"/>
<path d="M190.173 61.9258H165.365C163.645 61.9258 162.245 59.6826 162.245 56.9258C162.245 54.1689 163.645 51.9258 165.365 51.9258H190.173C191.893 51.9258 193.293 54.1689 193.293 56.9258C193.293 59.6826 191.893 61.9258 190.173 61.9258Z" fill="#E6E6E6"/>
<path d="M97.1642 337.192H73.449C69.1474 337.192 65.6479 331.585 65.6479 324.692V312.276C65.6479 305.384 69.1474 299.776 73.449 299.776H97.1642C101.466 299.776 104.965 305.384 104.965 312.276V324.692C104.965 331.585 101.466 337.192 97.1642 337.192Z" fill="#F2F2F2"/>
<path d="M222.313 265.631H73.449C69.1474 265.631 65.6479 260.024 65.6479 253.131V198.425C65.6479 191.532 69.1474 185.925 73.449 185.925H222.313C226.614 185.925 230.114 191.532 230.114 198.425V253.131C230.114 260.024 226.614 265.631 222.313 265.631Z" fill="#6C63FF"/>
<path d="M221.357 337.192H197.642C193.34 337.192 189.841 331.585 189.841 324.692V312.276C189.841 305.384 193.34 299.776 197.642 299.776H221.357C225.658 299.776 229.158 305.384 229.158 312.276V324.692C229.158 331.585 225.658 337.192 221.357 337.192Z" fill="#F2F2F2"/>
<path d="M158.656 337.192H134.941C130.64 337.192 127.14 331.585 127.14 324.692V312.276C127.14 305.384 130.64 299.776 134.941 299.776H158.656C162.958 299.776 166.457 305.384 166.457 312.276V324.692C166.457 331.585 162.958 337.192 158.656 337.192Z" fill="#F2F2F2"/>
<path d="M105.609 392.425H86.8865V420.425H105.609V392.425Z" fill="#F2F2F2"/>
<path d="M105.609 432.425H94.9998V460.425H105.609V432.425Z" fill="#F2F2F2"/>
<path d="M129.948 432.425H111.226V460.425H129.948V432.425Z" fill="#F2F2F2"/>
<path d="M129.948 472.425H111.226V500.425H129.948V472.425Z" fill="#F2F2F2"/>
<path d="M154.288 432.425H135.565V460.425H154.288V432.425Z" fill="#F2F2F2"/>
<path d="M129.948 392.425H111.226V420.425H129.948V392.425Z" fill="#F2F2F2"/>
<path d="M154.288 392.425H135.565V420.425H154.288V392.425Z" fill="#F2F2F2"/>
<path d="M202.966 392.425H184.244V420.425H202.966V392.425Z" fill="#F2F2F2"/>
<path d="M154.288 472.425H135.565V500.425H154.288V472.425Z" fill="#F2F2F2"/>
<path d="M178.627 392.425H159.904V420.425H178.627V392.425Z" fill="#F2F2F2"/>
<path d="M212.64 432.425H200.47V460.425H212.64C214.363 460.425 215.76 458.186 215.76 455.425V437.425C215.76 434.663 214.363 432.425 212.64 432.425Z" fill="#F2F2F2"/>
<path d="M105.609 472.425H101.865C100.141 472.425 98.7441 474.663 98.7441 477.425V495.425C98.7441 498.186 100.141 500.425 101.865 500.425H105.609V472.425Z" fill="#F2F2F2"/>
<path d="M178.627 472.425H159.904V500.425H178.627V472.425Z" fill="#F2F2F2"/>
<path d="M226.681 392.425H208.583V420.425H226.681C228.405 420.425 229.802 418.186 229.802 415.425V397.425C229.802 394.663 228.405 392.425 226.681 392.425Z" fill="#F2F2F2"/>
<path d="M194.853 472.847C194.47 472.579 194.049 472.425 193.605 472.425H184.244V500.425H193.605C194.049 500.425 194.47 500.271 194.853 500.003V472.847Z" fill="#F2F2F2"/>
<path d="M178.627 432.425H159.904V460.425H178.627V432.425Z" fill="#F2F2F2"/>
<path d="M194.853 432.425H184.244V460.425H194.853V432.425Z" fill="#F2F2F2"/>
<path d="M89.383 432.425H82.8301C81.1068 432.425 79.7097 434.663 79.7097 437.425V455.425C79.7097 458.186 81.1068 460.425 82.8301 460.425H89.383V432.425Z" fill="#F2F2F2"/>
<path d="M81.2698 392.425H68.7881C67.0648 392.425 65.6677 394.663 65.6677 397.425V415.425C65.6677 418.186 67.0648 420.425 68.7881 420.425H81.2698V392.425Z" fill="#F2F2F2"/>
<path d="M201.726 542.98L196.166 542.979L193.521 508.615L201.727 508.616L201.726 542.98Z" fill="#FFB6B6"/>
<path d="M201.921 552.274L184.823 552.273V551.927C184.824 546.038 187.803 541.264 191.478 541.263H191.479L194.602 537.467L200.429 541.264L201.922 541.264L201.921 552.274H201.921Z" fill="#2F2E41"/>
<path d="M236.341 542.98L230.781 542.979L228.136 508.615L236.342 508.616L236.341 542.98Z" fill="#FFB6B6"/>
<path d="M236.536 552.274L219.438 552.273V551.927C219.439 546.038 222.418 541.264 226.093 541.263H226.094L229.217 537.467L235.044 541.264L236.537 541.264L236.536 552.274Z" fill="#2F2E41"/>
<path d="M247.571 279.824H199.819L194.022 308.518L192.623 430.542L192.868 525.757L203.743 525.823L213.321 423.474C213.321 423.474 212.255 413.407 214.132 414.806C216.008 416.205 212.837 403.853 215.047 405.029C217.257 406.205 219.407 358.437 219.407 358.437L224.676 430.542L228.06 525.757H237.868L246.093 378.897C246.093 378.897 243.51 370.009 246.922 364.107C250.333 358.205 249.983 309.442 249.983 309.442L247.571 279.824Z" fill="#2F2E41"/>
<path d="M248.829 278.012C248.829 278.012 253.408 288.461 249.413 304.83C242.775 332.033 198.734 309.153 196.038 292.205C191.894 289.914 198.801 286.562 196.768 281.003C196.644 280.664 197.91 288.205 196.907 279.861C195.296 266.467 198.06 225.32 198.06 225.32L198.973 200.901C199.857 177.248 205.859 154.828 215.945 137.5L215.945 137.5H238.876L248.829 163.384L249.86 228.259L248.829 278.012H248.829Z" fill="#3F3D56"/>
<path d="M178.931 280.48L186.041 263.208L192.242 268.945L184.353 286.738C184.378 287.425 184.348 288.129 184.252 288.833C183.735 292.664 181.542 295.034 179.355 294.128C177.168 293.222 175.814 289.382 176.332 285.552C176.662 283.109 177.674 281.265 178.931 280.48H178.931Z" fill="#FFB6B6"/>
<path d="M212.586 143.046H212.586C204.621 143.046 198.067 153.092 197.714 165.842L196.193 220.771C196.193 220.771 196.181 223.821 195.477 222.918C194.772 222.015 194.713 225.21 194.713 225.21C194.713 225.21 194.681 230.096 194.017 227.299C193.352 224.502 193.262 229.563 193.262 229.563L183.588 256.234C184.888 260.542 183.878 265.867 183.556 270.205L190.512 280.464C190.512 280.464 190.451 277.384 191.95 277.436C201.142 277.754 210.552 237.972 210.394 223.258C210.214 206.469 212.586 143.046 212.586 143.046L212.586 143.046Z" fill="#3F3D56"/>
<path d="M215.854 66.624L222.964 83.8965L229.165 78.1595L221.276 60.3664C221.301 59.6798 221.27 58.9755 221.175 58.2712C220.658 54.4407 218.465 52.07 216.278 52.9763C214.091 53.8825 212.737 57.7224 213.255 61.5529C213.585 63.9958 214.597 65.8399 215.854 66.624H215.854Z" fill="#FFB6B6"/>
<path d="M249.509 204.058H249.509C241.544 204.058 234.99 194.012 234.637 181.262L233.115 126.333C233.115 126.333 233.104 123.283 232.4 124.186C231.695 125.09 231.636 121.894 231.636 121.894C231.636 121.894 231.604 117.008 230.939 119.805C230.275 122.602 230.185 117.541 230.185 117.541L217.534 79.5896L218.253 74.6391L225.176 66.3193C225.176 66.3193 227.973 67.7463 228.873 69.6683C233.413 79.3654 247.149 109.835 247.317 123.846C247.518 140.635 249.509 204.058 249.509 204.058Z" fill="#3F3D56"/>
<path d="M221.434 131.948C221.773 132.073 222.112 132.182 222.451 132.265C223.505 132.541 224.559 132.625 225.587 132.524C228.707 132.265 231.65 130.418 234.029 127.374C236.544 124.164 238.422 119.624 239.21 114.224C241.062 101.474 236.111 88.7161 228.154 85.7482C220.312 82.8137 212.47 90.4719 210.467 102.895C210.435 103.088 210.404 103.272 210.378 103.464C208.526 116.222 213.472 128.971 221.434 131.948V131.948Z" fill="#FFB6B6"/>
<path d="M239.979 116.626C237.914 125.362 232.687 132.286 226.86 132.702C225.868 132.767 224.835 132.646 223.958 131.888C223.076 131.14 222.395 129.633 222.47 128.043C222.626 124.909 225.285 123.707 226.035 120.795C226.531 118.872 225.96 116.404 224.795 115.471C223.63 114.546 222.055 115.286 221.391 117.088C222.603 114.13 221.893 109.961 220.364 107.419C218.841 104.867 216.701 103.564 214.635 102.325L214.589 101.068C213.13 101.965 211.537 100.162 210.903 97.8233C211.641 96.3905 212.109 94.6526 212.559 92.9424C211.953 93.6265 211.278 94.1256 210.562 94.4307C210.603 92.397 208.699 91.4264 209.022 89.4296C209.472 86.6563 212.074 82.5057 211.22 79.9912C212.812 80.7123 213.851 83.6889 213.401 86.2403C213.972 83.7444 214.543 81.2484 215.114 78.7433C215.559 80.4812 216.003 82.2191 216.453 83.9478C218.628 81.7754 220.878 79.566 223.405 78.8727C225.932 78.1702 228.839 79.3534 230.253 82.7923C231.724 81.3594 233.697 81.8031 235.151 83.2914C236.604 84.7797 237.62 87.137 238.433 89.5775C241.191 97.8049 242.045 107.9 239.979 116.626V116.626Z" fill="#2F2E41"/>
<path d="M315.138 536.626C316.427 536.755 317.14 534.189 316.164 532.693L316.067 532.075C316.08 532.025 316.093 531.976 316.106 531.926C317.41 526.944 321.829 526.979 323.121 531.968C324.269 536.396 325.73 540.832 326.089 545.514C326.251 547.581 326.178 549.686 325.892 551.714C328.581 542.304 329.995 532.028 329.995 521.694C329.995 519.097 329.907 516.501 329.725 513.911C329.576 511.792 329.371 509.687 329.105 507.6C327.666 496.323 324.55 485.582 320.055 476.611C317.895 474.718 316.093 471.76 315.005 468.214C314.614 466.935 314.307 465.56 314.162 464.158C314.408 464.21 315.089 458.209 314.904 457.841C315.246 457.008 315.86 456.594 316.234 455.781C318.095 451.737 320.659 452.443 321.998 457.938C324.858 460.251 324.886 464.086 323.131 467.775C322.014 470.122 321.861 473.297 320.882 475.81C320.982 476.016 321.087 476.217 321.188 476.423C323.036 480.221 324.634 484.303 325.982 488.592C325.601 483.826 326.163 478.084 327.121 474.382C328.212 470.165 330.257 466.613 332.058 462.967C334.221 458.588 338.657 460.499 339.038 466.051C339.042 466.104 339.045 466.158 339.049 466.212C338.781 466.454 338.519 466.711 338.263 466.982C336.803 468.529 337.308 472.156 339.038 472.584L339.077 472.593C338.98 474.137 338.815 475.668 338.573 477.173C340.883 491.488 335.896 496.702 328.774 496.937C328.617 497.066 328.464 497.195 328.306 497.318C329.028 500.573 329.604 503.912 330.032 507.297C330.415 510.287 330.681 513.31 330.83 516.346C331.015 520.176 330.999 524.025 330.798 527.849L330.81 527.713C331.322 523.502 332.748 519.569 334.82 516.843C337.907 512.78 342.267 511.284 345.597 508.019C347.2 506.447 349.254 508.478 348.974 511.456L348.961 511.598C348.465 511.921 347.981 512.296 347.514 512.716C347.246 512.958 346.984 513.214 346.728 513.486C345.268 515.033 345.773 518.66 347.503 519.087L347.542 519.097C347.57 519.104 347.594 519.11 347.622 519.116C346.772 522.352 345.587 525.356 344.103 527.946C342.659 540.443 336.455 541.629 329.818 537.989H329.814C329.088 543.053 328.028 548.001 326.666 552.715H315.42C315.379 552.515 315.343 552.309 315.307 552.108C316.347 552.212 317.395 552.115 318.419 551.811C317.584 550.171 316.75 548.517 315.916 546.877C315.895 546.844 315.879 546.812 315.863 546.78C315.44 545.94 315.013 545.107 314.589 544.267L314.589 544.266C314.563 541.689 314.755 539.12 315.138 536.626L315.138 536.626V536.626Z" fill="#F2F2F2"/>
<path d="M4 552.769C4 553.429 4.33078 553.959 4.7427 553.959H348.17C348.582 553.959 348.913 553.429 348.913 552.769C348.913 552.109 348.582 551.579 348.17 551.579H4.7427C4.33078 551.579 4 552.109 4 552.769Z" fill="#CCCCCC"/>
</g>
<defs>
<filter id="filter0_d_142_236" x="0" y="0" width="353" height="562" filterUnits="userSpaceOnUse" color-interpolation-filters="sRGB">
<feFlood flood-opacity="0" result="BackgroundImageFix"/>
<feColorMatrix in="SourceAlpha" type="matrix" values="0 0 0 0 0 0 0 0 0 0 0 0 0 0 0 0 0 0 127 0" result="hardAlpha"/>
<feOffset dy="4"/>
<feGaussianBlur stdDeviation="2"/>
<feComposite in2="hardAlpha" operator="out"/>
<feColorMatrix type="matrix" values="0 0 0 0 0 0 0 0 0 0 0 0 0 0 0 0 0 0 0.25 0"/>
<feBlend mode="normal" in2="BackgroundImageFix" result="effect1_dropShadow_142_236"/>
<feBlend mode="normal" in="SourceGraphic" in2="effect1_dropShadow_142_236" result="shape"/>
</filter>
</defs>
</svg>
