<svg width="51" height="30" viewBox="0 0 51 30" fill="none" xmlns="http://www.w3.org/2000/svg">
<path d="M48.1535 9.0251L31.487 1.14453C29.9592 0.407478 27.9813 0 25.9315 0C23.8817 0 21.9038 0.407478 20.376 1.14453L3.70942 9.0251C2.82711 9.4507 2.12304 9.9728 1.64408 10.5566C1.16511 11.1405 0.922251 11.7726 0.93166 12.411V25.5054C0.93166 26.6974 1.80963 27.8407 3.37242 28.6836C4.93521 29.5265 7.05481 30 9.26493 30H42.598C44.8082 30 46.9278 29.5265 48.4905 28.6836C50.0533 27.8407 50.9313 26.6974 50.9313 25.5054V12.3961C50.9368 11.7602 50.692 11.1309 50.2132 10.5498C49.7343 9.9687 49.0323 9.44903 48.1535 9.0251ZM31.487 27.0036H20.376V19.5126C20.376 19.1152 20.6686 18.7341 21.1896 18.4532C21.7105 18.1722 22.417 18.0143 23.1537 18.0143H28.7092C29.4459 18.0143 30.1525 18.1722 30.6734 18.4532C31.1943 18.7341 31.487 19.1152 31.487 19.5126V27.0036ZM45.3758 25.5054C45.3758 25.9027 45.0831 26.2838 44.5622 26.5648C44.0413 26.8457 43.3347 27.0036 42.598 27.0036H37.0425V19.5126C37.0425 18.3205 36.1645 17.1773 34.6018 16.3344C33.039 15.4915 30.9194 15.0179 28.7092 15.0179H23.1537C20.9436 15.0179 18.824 15.4915 17.2612 16.3344C15.6984 17.1773 14.8205 18.3205 14.8205 19.5126V27.0036H9.26493C8.52823 27.0036 7.82169 26.8457 7.30076 26.5648C6.77983 26.2838 6.48718 25.9027 6.48718 25.5054V12.3961C6.48768 12.1833 6.57216 11.9731 6.735 11.7794C6.89784 11.5856 7.13531 11.4128 7.43161 11.2724L24.0982 3.40682C24.6051 3.16663 25.2567 3.03417 25.9315 3.03417C26.6062 3.03417 27.2579 3.16663 27.7648 3.40682L44.4314 11.2724C44.7276 11.4128 44.9651 11.5856 45.128 11.7794C45.2908 11.9731 45.3753 12.1833 45.3758 12.3961V25.5054Z" fill="black"/>
</svg>
