<svg width="284" height="202" viewBox="0 0 284 202" fill="none" xmlns="http://www.w3.org/2000/svg">
<g clip-path="url(#clip0_10_841)">
<path d="M75.3793 46.4303L41.5947 42.4038L48.4317 11.4504L84.7245 17.8571L75.3793 46.4303Z" fill="#2F2E41"/>
<path d="M42.9033 180.34V52.6461C42.9033 50.3321 45.009 48.4495 47.5977 48.4495H279.306C281.894 48.4495 284 50.3321 284 52.6461V180.34C284 182.654 281.894 184.537 279.306 184.537H47.5977C45.009 184.537 42.9033 182.654 42.9033 180.34ZM283.149 52.6461C283.149 50.7483 281.428 49.2097 279.306 49.2097H47.5977C45.4747 49.2097 43.7537 50.7483 43.7537 52.6461V180.34C43.7537 182.238 45.4747 183.777 47.5977 183.777H212.294C251.427 183.777 283.149 155.417 283.149 120.434V52.6461Z" fill="#3F3D56"/>
<path d="M260.54 67.5689L257.041 66.0869C258.476 67.8776 259.713 70.6743 260.375 72.8998C261.496 70.8268 263.304 68.2903 265.093 66.7751L261.394 67.6258C263.673 57.6405 272.245 50.472 282.061 50.472L282.2 50.1113C271.947 50.1113 262.867 57.1804 260.54 67.5689V67.5689Z" fill="#3F3D56"/>
<path d="M276.647 82.7832H254.536C253.598 82.7832 252.835 82.1011 252.835 81.2627C252.835 80.4243 253.598 79.7422 254.536 79.7422H276.647C277.585 79.7422 278.348 80.4243 278.348 81.2627C278.348 82.1011 277.585 82.7832 276.647 82.7832Z" fill="#6C63FF"/>
<path d="M210.998 94.2037V134.498C210.998 138.061 207.755 140.96 203.769 140.96H158.696C154.71 140.96 151.468 138.061 151.468 134.498V94.2037C151.468 90.6403 154.71 87.7415 158.696 87.7415H203.769C207.755 87.7415 210.998 90.6403 210.998 94.2037ZM200.973 140.2C206.04 140.2 210.147 136.528 210.147 131.998V114.183C210.147 99.9997 197.286 88.5017 181.42 88.5017H158.696C155.174 88.5017 152.318 91.0546 152.318 94.2037V128.876C152.318 135.13 157.989 140.2 164.985 140.2H200.973Z" fill="#3F3D56"/>
<path d="M187.233 104.198H172.682C172.315 104.198 172.017 103.931 172.017 103.603C172.017 103.276 172.315 103.009 172.682 103.009H187.233C187.6 103.009 187.898 103.276 187.898 103.603C187.898 103.931 187.6 104.198 187.233 104.198V104.198Z" fill="#3F3D56"/>
<path d="M187.233 116.881H172.682C172.315 116.881 172.017 116.614 172.017 116.286C172.017 115.958 172.315 115.691 172.682 115.691H187.233C187.6 115.691 187.898 115.958 187.898 116.286C187.898 116.614 187.6 116.881 187.233 116.881V116.881Z" fill="#3F3D56"/>
<path d="M180.005 134.367H165.453C165.087 134.367 164.788 134.1 164.788 133.772C164.788 133.444 165.087 133.177 165.453 133.177H180.005C180.371 133.177 180.67 133.444 180.67 133.772C180.67 134.1 180.371 134.367 180.005 134.367V134.367Z" fill="#3F3D56"/>
<path d="M195.041 110.544H164.873C164.506 110.544 164.208 110.277 164.208 109.949C164.208 109.621 164.506 109.354 164.873 109.354H195.041C195.408 109.354 195.706 109.621 195.706 109.949C195.706 110.277 195.408 110.544 195.041 110.544V110.544Z" fill="#3F3D56"/>
<path d="M78.0779 115.036H28.2109C32.3907 106.698 34.9604 98.7567 30.9433 92.4403L78.0779 89.9976C75.7225 98.5245 75.4345 106.893 78.0779 115.036Z" fill="#FFB6B6"/>
<path d="M95.2523 184.537H58.592C58.3268 184.537 58.085 184.402 57.9693 184.188L57.746 183.777L52.8743 174.837C52.5606 174.261 51.5953 174.438 51.5608 175.078L51.0914 183.777L51.0818 183.949C51.0634 184.278 50.7593 184.537 50.3905 184.537H14.2956C13.9309 184.537 13.6285 184.283 13.6046 183.958C13.6002 183.897 13.5958 183.837 13.5917 183.777C11.2871 151.979 19.5745 130.425 24.4347 120.781L24.439 120.777C26.3482 116.984 27.7344 115.034 27.7344 115.034L28.2149 115.03H28.2191L37.9268 114.878H37.931L46.5289 114.748L53.0261 114.653L55.6327 114.612H55.637L57.2698 114.589L65.3871 114.463L72.637 114.353L77.8417 114.277H77.9862L78.7601 117.261V117.265L78.7899 117.398V117.402L78.9217 117.892L78.926 117.907L79.1896 118.938V118.945L79.2066 119.002V119.006L79.2704 119.253L79.2747 119.264L79.887 121.633L80.8777 125.483L82.1831 130.52L83.8287 136.914L84.6621 140.134L85.8059 144.57L95.926 183.777C96.0281 184.165 95.6985 184.537 95.2523 184.537H95.2523Z" fill="#2F2E41"/>
<path d="M70.8779 40.7821L51.0328 40.1631L43.1883 49.567L39.0607 50.3683C32.8733 51.5694 28.6289 56.671 29.1219 62.3141L30.9969 101.41L31.8474 105.971L78.621 112.814L89.1382 53.647L75.2991 49.2023L70.8779 40.7821Z" fill="#6C63FF"/>
<path d="M63.6366 39.2993C73.4747 39.2993 81.45 32.1695 81.45 23.3745C81.45 14.5795 73.4747 7.44971 63.6366 7.44971C53.7986 7.44971 45.8232 14.5795 45.8232 23.3745C45.8232 32.1695 53.7986 39.2993 63.6366 39.2993Z" fill="#FFB6B6"/>
<path d="M262.01 183.058L246.567 177.928C244.251 177.158 243.067 174.847 243.927 172.777L259.099 136.28C259.96 134.209 262.545 133.151 264.861 133.92L280.304 139.051C282.621 139.821 283.805 142.131 282.944 144.202C277.139 158.953 270.806 175.529 267.772 180.699C266.911 182.769 264.327 183.828 262.01 183.058Z" fill="#3F3D56"/>
<path d="M279.14 153.943C279.042 153.91 278.932 153.955 278.896 154.043L276.782 159.126C276.746 159.214 276.796 159.312 276.894 159.344C276.992 159.377 277.101 159.332 277.138 159.245L279.251 154.161C279.288 154.073 279.238 153.975 279.14 153.943Z" fill="#3F3D56"/>
<path d="M282.544 144.069L267.373 180.565C266.623 182.368 264.441 183.321 262.41 182.776L262.409 182.775C262.379 182.767 262.349 182.759 262.318 182.75C262.265 182.735 262.212 182.718 262.159 182.701C262.159 182.701 261.969 182.623 261.621 182.48C261.27 182.337 260.76 182.126 260.125 181.862C259.934 181.783 259.733 181.699 259.521 181.611C259.099 181.434 258.636 181.241 258.139 181.031C257.941 180.948 257.737 180.861 257.528 180.772C256.459 180.321 255.265 179.811 254.008 179.265C253.795 179.173 253.581 179.081 253.366 178.986C253.309 178.961 244.151 173.335 244.328 172.909L259.499 136.413C260.28 134.536 262.614 133.58 264.713 134.278L266.983 135.032C267.345 135.152 267.532 135.502 267.428 135.835C267.422 135.858 267.416 135.88 267.411 135.903C267.342 136.249 267.581 136.587 267.951 136.709L275.928 139.36C276.297 139.482 276.725 139.367 276.925 139.064C276.939 139.044 276.95 139.023 276.962 139.003C277.127 138.69 277.524 138.534 277.886 138.654L280.156 139.408C282.255 140.106 283.325 142.192 282.544 144.069V144.069Z" fill="#6C63FF"/>
<path d="M256.576 142.107C256.478 142.074 256.369 142.119 256.332 142.207L255.804 143.478C255.767 143.565 255.818 143.663 255.916 143.696C256.014 143.728 256.123 143.683 256.159 143.596L256.688 142.325C256.724 142.237 256.674 142.139 256.576 142.107Z" fill="#3F3D56"/>
<path d="M254.991 145.92C254.893 145.887 254.784 145.932 254.747 146.02L253.724 148.482C253.687 148.57 253.737 148.667 253.835 148.7C253.933 148.733 254.043 148.688 254.079 148.6L255.103 146.138C255.139 146.05 255.089 145.952 254.991 145.92Z" fill="#3F3D56"/>
<path d="M253.538 149.415C253.44 149.382 253.331 149.427 253.294 149.515L252.271 151.977C252.234 152.065 252.284 152.163 252.382 152.195C252.48 152.228 252.59 152.183 252.626 152.095L253.65 149.633C253.686 149.545 253.636 149.447 253.538 149.415Z" fill="#3F3D56"/>
<path d="M266.689 135.567L263.292 134.439C263.273 134.432 263.252 134.441 263.245 134.458L263.105 134.794C263.098 134.811 263.108 134.83 263.127 134.836L266.524 135.964C266.543 135.971 266.564 135.962 266.571 135.945L266.71 135.609C266.718 135.592 266.708 135.573 266.689 135.567Z" fill="#E6E6E6"/>
<path d="M278.184 139.815C278.393 139.815 278.563 139.664 278.563 139.476C278.563 139.289 278.393 139.137 278.184 139.137C277.974 139.137 277.805 139.289 277.805 139.476C277.805 139.664 277.974 139.815 278.184 139.815Z" fill="#E6E6E6"/>
<path d="M279.16 140.14C279.37 140.14 279.54 139.989 279.54 139.801C279.54 139.614 279.37 139.462 279.16 139.462C278.951 139.462 278.781 139.614 278.781 139.801C278.781 139.989 278.951 140.14 279.16 140.14Z" fill="#E6E6E6"/>
<path d="M280.138 140.465C280.347 140.465 280.517 140.313 280.517 140.126C280.517 139.939 280.347 139.787 280.138 139.787C279.929 139.787 279.759 139.939 279.759 140.126C279.759 140.313 279.929 140.465 280.138 140.465Z" fill="#E6E6E6"/>
<path d="M224.146 67.8133H210.81C209.094 67.8133 207.698 66.5652 207.698 65.0311V51.5888C207.698 50.0547 209.094 48.8066 210.81 48.8066H224.146C225.862 48.8066 227.258 50.0547 227.258 51.5888V65.0311C227.258 66.5652 225.862 67.8133 224.146 67.8133Z" fill="white"/>
<path d="M224.146 67.8133H210.81C209.094 67.8133 207.698 66.5652 207.698 65.0311C207.028 60.0813 206.843 55.4713 207.698 51.5888C207.698 50.0547 209.094 48.8066 210.81 48.8066H224.146C225.862 48.8066 227.258 50.0547 227.258 51.5888V65.0311C227.258 66.5652 225.862 67.8133 224.146 67.8133V67.8133ZM210.81 49.1868C209.329 49.1868 208.124 50.2642 208.124 51.5888V65.0311C208.124 66.3557 209.329 67.4331 210.81 67.4331H224.146C225.628 67.4331 226.833 66.3557 226.833 65.0311V51.5888C226.833 50.2642 225.628 49.1868 224.146 49.1868H210.81Z" fill="#3F3D56"/>
<path d="M222.799 56.9795H211.811C211.345 56.9795 210.966 56.6405 210.966 56.2239C210.966 55.8072 211.345 55.4683 211.811 55.4683H222.799C223.265 55.4683 223.644 55.8072 223.644 56.2239C223.644 56.6405 223.265 56.9795 222.799 56.9795Z" fill="#6C63FF"/>
<path d="M222.799 61.1609H211.811C211.345 61.1609 210.966 60.8219 210.966 60.4053C210.966 59.9886 211.345 59.6497 211.811 59.6497H222.799C223.265 59.6497 223.644 59.9886 223.644 60.4053C223.644 60.8219 223.265 61.1609 222.799 61.1609Z" fill="#6C63FF"/>
<path d="M222.799 52.7981H211.811C211.345 52.7981 210.966 52.4591 210.966 52.0425C210.966 51.6258 211.345 51.2869 211.811 51.2869H222.799C223.265 51.2869 223.644 51.6258 223.644 52.0425C223.644 52.4591 223.265 52.7981 222.799 52.7981Z" fill="#6C63FF"/>
<path d="M57.5795 44.2568C58.5556 45.9018 59.8663 47.2133 61.2561 48.0618L69.4474 64.2579L77.9541 60.5479L68.7289 44.5181C68.7225 43.0136 68.2429 41.3079 67.2668 39.6629C65.0369 35.9048 61.0607 33.8867 58.3856 35.1553C55.7105 36.4239 55.3496 40.4987 57.5795 44.2568L57.5795 44.2568Z" fill="#FFB6B6"/>
<path d="M76.0238 54.4653C76.0238 54.4653 88.5001 48.6205 92.3712 54.7575C95.674 59.9936 98.0605 86.1949 98.6899 93.7742C98.8004 95.1046 98.4121 96.4258 97.586 97.5368V97.5368C95.1393 100.827 89.8648 101.14 86.9523 98.1691L61.6709 53.6682L73.6628 48.5732L76.5957 54.9233L76.0238 54.4653V54.4653Z" fill="#6C63FF"/>
<path d="M102.698 117.158C102.972 116.811 103.133 116.388 103.133 115.931V76.9314C103.133 75.7546 102.066 74.8005 100.749 74.8005H34.8071C33.4907 74.8005 32.4235 75.7546 32.4235 76.9314V115.931C32.4235 116.388 32.5849 116.811 32.8588 117.158H24.623V119.202C53.2571 120.634 82.0272 120.634 110.933 119.202V117.158H102.698Z" fill="#3F3D56"/>
<path d="M173.545 202H160.21C158.494 202 157.098 200.752 157.098 199.218V185.776C157.098 184.241 158.494 182.993 160.21 182.993H173.545C175.261 182.993 176.658 184.241 176.658 185.776V199.218C176.658 200.752 175.261 202 173.545 202Z" fill="white"/>
<path d="M173.546 202H160.21C158.494 202 157.098 200.752 157.098 199.218C156.427 194.268 156.242 189.658 157.098 185.776C157.098 184.241 158.494 182.993 160.21 182.993H173.546C175.262 182.993 176.658 184.241 176.658 185.776V199.218C176.658 200.752 175.262 202 173.546 202ZM160.21 183.374C158.728 183.374 157.523 184.451 157.523 185.776V199.218C157.523 200.542 158.728 201.62 160.21 201.62H173.546C175.027 201.62 176.232 200.542 176.232 199.218V185.776C176.232 184.451 175.027 183.374 173.546 183.374H160.21Z" fill="#3F3D56"/>
<path d="M172.198 191.166H161.21C160.744 191.166 160.365 190.827 160.365 190.411C160.365 189.994 160.744 189.655 161.21 189.655H172.198C172.665 189.655 173.044 189.994 173.044 190.411C173.044 190.827 172.665 191.166 172.198 191.166Z" fill="#6C63FF"/>
<path d="M172.198 195.348H161.21C160.744 195.348 160.365 195.009 160.365 194.592C160.365 194.175 160.744 193.836 161.21 193.836H172.198C172.665 193.836 173.044 194.175 173.044 194.592C173.044 195.009 172.665 195.348 172.198 195.348Z" fill="#6C63FF"/>
<path d="M172.198 186.985H161.21C160.744 186.985 160.365 186.646 160.365 186.229C160.365 185.813 160.744 185.474 161.21 185.474H172.198C172.665 185.474 173.044 185.813 173.044 186.229C173.044 186.646 172.665 186.985 172.198 186.985Z" fill="#6C63FF"/>
<path d="M57.2081 111.998C55.1252 112.008 53.2174 112.437 51.7319 113.144L31.8825 112.118L31.6123 120.576L51.7766 120.707C53.2705 121.399 55.1832 121.811 57.2661 121.801C62.0246 121.779 65.8691 119.566 65.8531 116.859C65.8371 114.152 61.9666 111.975 57.2081 111.998H57.2081Z" fill="#FFB6B6"/>
<path d="M38.1371 50.3974C38.1371 50.3974 21.2636 48.7166 16.9653 58.0747C13.6818 65.2234 5.15159 93.085 0.364798 109.036C-1.38527 114.868 3.37248 120.643 10.1214 120.882L39.9269 121.937L41.6508 110.149L20.367 107.112L32.273 75.1807L38.1371 50.3974Z" fill="#6C63FF"/>
<path d="M81.454 11.0802C82.3105 7.20215 77.0533 5.69592 73.1162 3.89649L69.7736 1.36907C66.2693 -0.232569 62.1718 -0.438525 58.4888 0.801844L46.9945 4.22232C41.7771 5.97939 39.9566 10.162 36.9501 14.3594L31.9106 20.374C28.951 24.506 29.8358 30.9568 30.5298 35.8239L30.8206 37.8634L28.0518 43.7827L49.3315 47.179L53.6205 38.044L50.9439 33.7023C49.9942 32.1618 50.3742 30.2378 51.8567 29.0812L51.8567 29.0812C57.1892 24.9209 58.2109 17.7806 58.2109 17.7806L62.7188 21.3346C65.9949 22.4334 69.0193 22.9999 71.7959 23.0429C74.8498 23.0902 77.604 22.5043 80.0642 21.2967L80.4972 27.1852C79.2256 34.1464 77.3277 35.6771 68.7768 41.0026L79.0683 50.1766L79.5506 46.4408C80.698 37.554 85.6551 31.3689 86.997 24.2188C87.9249 19.2748 85.7828 14.267 81.454 11.0803H81.454V11.0802Z" fill="#2F2E41"/>
</g>
<defs>
<clipPath id="clip0_10_841">
<rect width="284" height="202" fill="white"/>
</clipPath>
</defs>
</svg>
