<svg width="50" height="40" viewBox="0 0 50 40" fill="none" xmlns="http://www.w3.org/2000/svg">
<path d="M23.225 26.58C23.1175 26.675 23.0173 26.7752 22.925 26.88C22.8304 26.9915 22.7547 27.1125 22.7 27.24C22.6279 27.3534 22.5774 27.4747 22.55 27.6C22.5377 27.7331 22.5377 27.8668 22.55 28C22.5416 28.2623 22.6101 28.5226 22.75 28.76C22.8623 29.0082 23.0414 29.2336 23.2747 29.4202C23.508 29.6069 23.7898 29.7502 24.1 29.84C24.3993 29.9458 24.7228 30.0005 25.05 30.0005C25.3772 30.0005 25.7008 29.9458 26 29.84C26.3102 29.7502 26.592 29.6069 26.8253 29.4202C27.0586 29.2336 27.2377 29.0082 27.35 28.76C27.461 28.5168 27.512 28.2587 27.5 28C27.5019 27.7368 27.4388 27.4759 27.3144 27.2322C27.19 26.9885 27.0067 26.7669 26.775 26.58C26.5426 26.3925 26.2661 26.2437 25.9614 26.1422C25.6568 26.0407 25.33 25.9884 25 25.9884C24.67 25.9884 24.3432 26.0407 24.0386 26.1422C23.7339 26.2437 23.4574 26.3925 23.225 26.58ZM25 0C20.0555 0 15.222 1.17298 11.1108 3.37061C6.99952 5.56823 3.79521 8.69181 1.90302 12.3463C0.0108321 16.0008 -0.484251 20.0222 0.480379 23.9018C1.44501 27.7814 3.82603 31.3451 7.32234 34.1421C10.8187 36.9392 15.2732 38.844 20.1227 39.6157C24.9723 40.3874 29.9989 39.9913 34.5671 38.4776C39.1352 36.9638 43.0397 34.4004 45.7867 31.1114C48.5338 27.8224 50 23.9556 50 20C50 17.3736 49.3534 14.7728 48.097 12.3463C46.8406 9.91982 44.9991 7.71503 42.6777 5.85786C40.3562 4.00069 37.6002 2.5275 34.5671 1.52241C31.534 0.517315 28.2831 0 25 0ZM25 36C21.0444 36 17.1776 35.0616 13.8886 33.3035C10.5996 31.5454 8.03617 29.0465 6.52242 26.1229C5.00867 23.1993 4.6126 19.9822 5.38431 16.8785C6.15601 13.7749 8.06082 10.9239 10.8579 8.68629C13.6549 6.44865 17.2186 4.9248 21.0982 4.30743C24.9778 3.69007 28.9992 4.00692 32.6537 5.21793C36.3082 6.42893 39.4318 8.47969 41.6294 11.1109C43.827 13.7421 45 16.8355 45 20C45 24.2435 42.8929 28.3131 39.1421 31.3137C35.3914 34.3143 30.3043 36 25 36ZM25 10C23.6827 9.99932 22.3883 10.2762 21.2473 10.8029C20.1062 11.3295 19.1587 12.0873 18.5 13C18.3191 13.2276 18.1977 13.4822 18.1429 13.7483C18.0882 14.0145 18.1014 14.2868 18.1816 14.5488C18.2618 14.8108 18.4074 15.0571 18.6097 15.2729C18.812 15.4887 19.0668 15.6695 19.3587 15.8045C19.6506 15.9395 19.9736 16.0258 20.3083 16.0584C20.6431 16.0909 20.9825 16.0689 21.3064 15.9937C21.6302 15.9186 21.9316 15.7918 22.1926 15.621C22.4536 15.4503 22.6687 15.239 22.825 15C23.0453 14.6948 23.3624 14.4416 23.7444 14.266C24.1263 14.0903 24.5595 13.9986 25 14C25.663 14 26.2989 14.2107 26.7678 14.5858C27.2366 14.9609 27.5 15.4696 27.5 16C27.5 16.5304 27.2366 17.0391 26.7678 17.4142C26.2989 17.7893 25.663 18 25 18C24.337 18 23.7011 18.2107 23.2322 18.5858C22.7634 18.9609 22.5 19.4696 22.5 20V22C22.5 22.5304 22.7634 23.0391 23.2322 23.4142C23.7011 23.7893 24.337 24 25 24C25.663 24 26.2989 23.7893 26.7678 23.4142C27.2366 23.0391 27.5 22.5304 27.5 22V21.64C29.1534 21.16 30.5434 20.2304 31.4269 19.0137C32.3105 17.797 32.6314 16.3706 32.3335 14.9838C32.0356 13.597 31.138 12.338 29.7975 11.427C28.457 10.516 26.7589 10.0109 25 10Z" fill="black"/>
</svg>
