<svg width="285" height="266" viewBox="0 0 285 266" fill="none" xmlns="http://www.w3.org/2000/svg">
<path d="M119.112 211.692C119.129 213.938 119.972 216.084 121.456 217.661C122.941 219.237 124.945 220.115 127.029 220.101L261.919 219.059C264.003 219.042 265.995 218.133 267.458 216.534C268.92 214.934 269.733 212.774 269.718 210.529C269.704 208.283 268.862 206.136 267.378 204.56C265.894 202.983 263.89 202.105 261.806 202.12L126.916 203.162C124.832 203.18 122.84 204.088 121.377 205.688C119.914 207.287 119.099 209.446 119.112 211.692Z" fill="#F2F2F2"/>
<path d="M135.293 209.667C135.293 209.524 135.345 209.387 135.438 209.286C135.531 209.185 135.658 209.128 135.79 209.127L170.63 208.993C170.696 208.993 170.761 209.007 170.821 209.033C170.882 209.06 170.937 209.1 170.984 209.149C171.03 209.199 171.067 209.258 171.092 209.323C171.118 209.388 171.131 209.458 171.131 209.529C171.131 209.599 171.119 209.669 171.094 209.735C171.069 209.8 171.032 209.859 170.986 209.909C170.94 209.959 170.885 209.999 170.825 210.026C170.764 210.054 170.7 210.068 170.634 210.068L135.793 210.202C135.661 210.203 135.534 210.146 135.44 210.046C135.347 209.946 135.294 209.809 135.293 209.667Z" fill="#CCCCCC"/>
<path d="M135.333 214.593C135.333 214.451 135.385 214.314 135.478 214.213C135.572 214.112 135.698 214.055 135.83 214.054L225.534 213.48C225.6 213.48 225.665 213.494 225.725 213.52C225.786 213.547 225.841 213.586 225.888 213.636C225.935 213.685 225.972 213.744 225.997 213.809C226.022 213.875 226.036 213.944 226.036 214.015C226.036 214.085 226.024 214.155 225.999 214.221C225.974 214.286 225.938 214.346 225.892 214.396C225.846 214.446 225.791 214.486 225.731 214.513C225.67 214.541 225.606 214.555 225.54 214.555H225.538L135.834 215.129C135.702 215.129 135.575 215.073 135.481 214.973C135.387 214.872 135.334 214.736 135.333 214.593Z" fill="#CCCCCC"/>
<path d="M119.112 179.453C119.129 181.698 119.972 183.845 121.456 185.421C122.941 186.998 124.945 187.875 127.029 187.861L261.919 186.82C264.003 186.802 265.995 185.894 267.458 184.295C268.92 182.695 269.733 180.535 269.718 178.29C269.704 176.044 268.862 173.897 267.378 172.32C265.894 170.743 263.89 169.866 261.806 169.881L126.916 170.923C124.832 170.941 122.84 171.849 121.377 173.448C119.914 175.048 119.099 177.207 119.112 179.453Z" fill="#F2F2F2"/>
<path d="M133.812 182.355C133.812 182.212 133.864 182.076 133.957 181.975C134.05 181.873 134.177 181.816 134.309 181.816L224.013 181.242C224.078 181.242 224.143 181.256 224.204 181.282C224.265 181.309 224.32 181.349 224.366 181.398C224.413 181.448 224.45 181.507 224.475 181.572C224.5 181.637 224.513 181.707 224.513 181.778C224.514 181.848 224.501 181.918 224.476 181.984C224.451 182.049 224.415 182.108 224.369 182.158C224.322 182.208 224.268 182.248 224.207 182.275C224.147 182.303 224.082 182.317 224.016 182.317L134.313 182.891C134.18 182.891 134.053 182.835 133.959 182.734C133.866 182.634 133.813 182.497 133.812 182.355Z" fill="#CCCCCC"/>
<path d="M133.812 176.891C133.812 176.749 133.864 176.612 133.957 176.511C134.05 176.41 134.177 176.352 134.309 176.352L224.013 175.778C224.078 175.778 224.143 175.792 224.204 175.819C224.265 175.845 224.32 175.885 224.366 175.934C224.413 175.984 224.45 176.043 224.475 176.108C224.5 176.173 224.513 176.243 224.513 176.314C224.514 176.384 224.501 176.454 224.476 176.52C224.451 176.585 224.415 176.644 224.369 176.695C224.322 176.745 224.268 176.784 224.207 176.812C224.147 176.839 224.082 176.853 224.016 176.853L134.313 177.427C134.18 177.427 134.053 177.371 133.959 177.27C133.866 177.17 133.813 177.034 133.812 176.891Z" fill="#CCCCCC"/>
<path d="M158.591 249.061L23.7008 248.02C21.6168 248.005 19.6127 248.882 18.1289 250.459C16.6451 252.036 15.8032 254.183 15.7883 256.428C15.7734 258.674 16.5866 260.834 18.0492 262.433C19.5119 264.033 21.5042 264.941 23.5881 264.958L158.478 266C160.562 266.015 162.566 265.138 164.05 263.561C165.534 261.984 166.375 259.837 166.39 257.591C166.405 255.346 165.592 253.186 164.129 251.586C162.667 249.987 160.674 249.079 158.591 249.061Z" fill="#F2F2F2"/>
<path d="M66.0392 256.102L31.1987 255.968C31.1332 255.967 31.0684 255.953 31.0079 255.926C30.9475 255.899 30.8927 255.859 30.8465 255.809C30.8003 255.759 30.7638 255.699 30.7389 255.634C30.7141 255.569 30.7014 255.499 30.7017 255.428C30.7019 255.358 30.715 255.288 30.7403 255.223C30.7656 255.158 30.8025 255.098 30.849 255.049C30.8955 254.999 30.9506 254.96 31.0112 254.933C31.0718 254.906 31.1367 254.892 31.2022 254.893L66.0428 255.027C66.1084 255.027 66.1734 255.041 66.234 255.068C66.2946 255.095 66.3496 255.135 66.3959 255.185C66.4422 255.235 66.4789 255.295 66.5038 255.36C66.5287 255.425 66.5415 255.495 66.5412 255.566C66.541 255.637 66.5278 255.707 66.5024 255.772C66.4771 255.837 66.44 255.896 66.3934 255.946C66.3468 255.996 66.2915 256.035 66.2307 256.062C66.1699 256.089 66.1049 256.102 66.0392 256.102Z" fill="#CCCCCC"/>
<path d="M121.275 261.028L31.5708 260.455C31.5053 260.455 31.4404 260.44 31.38 260.413C31.3196 260.386 31.2647 260.346 31.2186 260.296C31.1724 260.246 31.1359 260.187 31.111 260.121C31.0862 260.056 31.0735 259.986 31.0737 259.915C31.074 259.845 31.0871 259.775 31.1124 259.71C31.1377 259.645 31.1746 259.586 31.2211 259.536C31.2676 259.486 31.3227 259.447 31.3833 259.42C31.4439 259.393 31.5088 259.38 31.5743 259.38L121.278 259.953C121.344 259.954 121.409 259.968 121.469 259.995C121.529 260.022 121.584 260.062 121.63 260.112C121.677 260.162 121.713 260.222 121.738 260.287C121.763 260.352 121.775 260.422 121.775 260.493C121.775 260.563 121.762 260.633 121.737 260.698C121.711 260.763 121.674 260.822 121.628 260.872C121.581 260.922 121.526 260.961 121.466 260.988C121.405 261.015 121.34 261.029 121.275 261.028Z" fill="#CCCCCC"/>
<path d="M281.45 182.593C283.411 182.593 285 180.881 285 178.768C285 176.656 283.411 174.943 281.45 174.943C279.49 174.943 277.9 176.656 277.9 178.768C277.9 180.881 279.49 182.593 281.45 182.593Z" fill="#F2F2F2"/>
<path d="M281.45 214.832C283.411 214.832 285 213.12 285 211.008C285 208.895 283.411 207.183 281.45 207.183C279.49 207.183 277.9 208.895 277.9 211.008C277.9 213.12 279.49 214.832 281.45 214.832Z" fill="#F2F2F2"/>
<path d="M122.077 235.224L24.4845 250.976C23.6893 251.105 22.8782 251.064 22.0977 250.855C21.3172 250.646 20.5826 250.274 19.9358 249.759C19.289 249.244 18.7427 248.596 18.3281 247.854C17.9135 247.111 17.6388 246.288 17.5197 245.431C17.4006 244.574 17.4393 243.7 17.6337 242.859C17.8282 242.019 18.1745 241.227 18.6528 240.531C19.1312 239.834 19.7323 239.246 20.4217 238.8C21.1112 238.354 21.8754 238.058 22.6708 237.93L120.263 222.178C121.059 222.049 121.87 222.09 122.65 222.299C123.431 222.508 124.165 222.88 124.812 223.395C125.459 223.91 126.005 224.558 126.42 225.3C126.834 226.043 127.109 226.866 127.228 227.723C127.347 228.58 127.309 229.454 127.114 230.295C126.92 231.136 126.574 231.927 126.095 232.623C125.617 233.32 125.016 233.908 124.326 234.354C123.637 234.8 122.873 235.096 122.077 235.224L122.077 235.224Z" fill="#6C63FF"/>
<path d="M54.1747 238.985L28.9818 243.151C28.8861 243.167 28.7886 243.141 28.7105 243.079C28.6325 243.018 28.5804 242.925 28.5657 242.822C28.5511 242.719 28.575 242.614 28.6322 242.53C28.6895 242.446 28.7754 242.39 28.8711 242.374L54.064 238.208C54.1596 238.192 54.2572 238.218 54.3352 238.279C54.4133 238.341 54.4654 238.434 54.48 238.537C54.4947 238.64 54.4708 238.745 54.4135 238.829C54.3563 238.913 54.2704 238.969 54.1747 238.985Z" fill="white"/>
<path d="M94.6116 235.788L29.7235 246.35C29.6278 246.366 29.5303 246.34 29.4522 246.278C29.3742 246.216 29.3221 246.124 29.3074 246.021C29.2928 245.918 29.3167 245.812 29.3739 245.728C29.4312 245.644 29.5171 245.588 29.6128 245.572L94.5009 235.011C94.5483 235.003 94.5968 235.005 94.6434 235.017C94.69 235.029 94.734 235.051 94.7727 235.082C94.8115 235.112 94.8442 235.151 94.8691 235.195C94.894 235.239 94.9106 235.288 94.9179 235.339C94.9252 235.391 94.923 235.443 94.9115 235.493C94.9001 235.543 94.8796 235.59 94.8511 235.632C94.8227 235.674 94.7869 235.709 94.7458 235.736C94.7047 235.762 94.6591 235.78 94.6116 235.788V235.788Z" fill="white"/>
<path d="M99.4064 227.295C99.0279 227.271 98.6587 227.16 98.3243 226.967C97.9899 226.774 97.6983 226.506 97.4697 226.18C97.2411 225.854 97.0809 225.479 97.0002 225.08C96.9195 224.68 96.9203 224.267 97.0024 223.868L86.395 215.683L87.7749 211.965L100.307 221.786C100.92 221.985 101.444 222.419 101.779 223.006C102.115 223.593 102.239 224.293 102.128 224.972C102.017 225.651 101.678 226.263 101.177 226.691C100.675 227.119 100.045 227.334 99.4064 227.295Z" fill="#A0616A"/>
<path d="M70.9095 181.528L64.5356 184.042C64.2555 184.152 63.9983 184.321 63.7788 184.538C63.5592 184.756 63.3816 185.018 63.256 185.309C63.1305 185.601 63.0594 185.916 63.0469 186.237C63.0344 186.558 63.0807 186.879 63.1832 187.181C63.2083 187.254 63.2365 187.327 63.2681 187.398L71.9585 206.932L92.8977 223.193L96.1072 217.683L80.2455 202.12L70.9095 181.528Z" fill="#3F3D56"/>
<path d="M68.2886 221.926C61.0247 221.198 53.9093 219.392 46.6343 218.784L49.5539 210.777L64.4749 213.172L68.2886 221.926Z" fill="#A0616A"/>
<path d="M43.6441 223.809L43.5811 224.408L43.0617 229.225L42.4532 229.265L42.4199 235.297C42.6112 235.894 42.6102 236.543 42.417 237.139C42.2238 237.735 41.8497 238.244 41.3552 238.583C41.2732 238.64 41.1876 238.69 41.0992 238.735C40.7292 235.604 40.8408 232.429 41.4294 229.337C41.6656 228.187 42.0138 227.067 42.4681 225.995C42.697 225.465 42.9572 224.951 43.2472 224.456C43.3696 224.236 43.5031 224.02 43.6441 223.809Z" fill="#2F2E41"/>
<path d="M43.7593 222.77L43.6443 223.805V223.809L43.5812 224.408C43.418 224.432 43.303 224.448 43.2474 224.456C43.2338 224.459 43.2202 224.46 43.2065 224.46L43.7593 222.77Z" fill="#6C63FF"/>
<path d="M70.1734 202.918L68.9195 210.777C68.9195 210.777 71.9652 218.172 69.8692 220.015C69.6128 220.263 69.4156 220.573 69.2942 220.921C69.1728 221.268 69.1308 221.641 69.1717 222.01C68.8749 221.982 68.5819 221.954 68.2888 221.926C61.0249 221.198 53.9095 219.392 46.6345 218.784C46.1188 218.74 45.6068 218.7 45.0912 218.672L47.3319 211.805L45.8183 205.701L44.2491 199.369L43.9115 188.944C43.9034 188.747 43.9047 188.549 43.9152 188.352C43.9152 188.248 43.9189 188.148 43.9263 188.044C44.0079 186.728 44.3622 185.448 44.963 184.298C45.5639 183.148 46.3962 182.158 47.3987 181.401C47.4015 181.4 47.4042 181.399 47.4062 181.397C47.748 181.138 48.1077 180.909 48.482 180.709C48.8841 180.494 49.3023 180.317 49.7322 180.178L50.1626 180.038L52.4923 175.976L55.1931 175.673L56.1947 175.561L62.7203 174.829L64.1264 176.796L64.3823 177.156L65.3728 178.539L68.4594 180.31C69.1341 180.695 69.7507 181.188 70.2884 181.773C71.5504 183.132 72.3335 184.923 72.5031 186.837C72.544 187.278 72.5515 187.722 72.5254 188.164L70.1734 202.918Z" fill="#3F3D56"/>
<path d="M38.4087 167.526C38.3417 170.633 39.4192 173.641 40.9672 176.284C41.4843 174.749 42.2085 173.306 43.1163 171.999C42.6816 174.894 43.1446 177.863 44.4337 180.446C44.4791 180.481 44.5262 180.513 44.5747 180.543C45.1936 180.976 45.8958 181.251 46.6281 181.348C47.3604 181.445 48.1035 181.36 48.8011 181.102C47.4231 179.421 46.5967 177.299 46.4494 175.062C46.3022 172.825 46.8423 170.598 47.9864 168.725C48.6558 167.682 49.5216 166.76 49.9362 165.574C50.5909 163.681 49.9616 161.596 49.5646 159.623C49.1934 157.786 49.1284 155.6 50.2721 154.254C50.1499 154.066 49.9836 153.916 49.79 153.82C49.5964 153.724 49.3826 153.685 49.1706 153.707C48.8258 153.802 48.5064 153.982 48.238 154.233C47.9696 154.485 47.7597 154.8 47.6252 155.155C47.3614 155.866 47.0268 156.544 46.6271 157.177C45.7834 158.276 44.3466 158.536 43.1357 159.116C40.2034 160.523 38.479 164.069 38.4087 167.526Z" fill="#2F2E41"/>
<path d="M63.0919 165.75C62.9243 165.118 64.0793 168.981 63.522 169.051C60.9836 169.365 57.4989 170.998 55.731 171.76C55.6514 171.75 55.5717 171.74 55.4945 171.728C55.3048 171.705 55.1198 171.673 54.9371 171.636C50.8204 170.796 49.2373 163.983 49.2373 163.92C49.2373 163.614 49.9196 155.201 50.9945 155.076C51.2768 155.043 51.5605 155.027 51.8445 155.026H54.5117C55.0636 154.898 55.623 154.811 56.186 154.765H56.1907C61.5603 154.324 65.7941 157.85 65.3983 162.141C65.396 162.146 65.3913 162.151 65.389 162.156C65.2742 162.341 65.1735 162.515 65.0845 162.682C64.9979 162.839 64.9253 162.988 64.8621 163.13C64.3726 164.226 65.6307 165.605 64.7965 165.862C63.687 166.204 67.7145 177.455 63.323 177.455C65.4591 178.11 63.5542 167.493 63.0919 165.75Z" fill="#2F2E41"/>
<path d="M58.2988 172.351C61.7865 172.351 64.6138 169.305 64.6138 165.547C64.6138 161.789 61.7865 158.742 58.2988 158.742C54.8112 158.742 51.9839 161.789 51.9839 165.547C51.9839 169.305 54.8112 172.351 58.2988 172.351Z" fill="#A0616A"/>
<path d="M65.3986 162.512C65.2932 162.572 65.1901 162.627 65.0847 162.682C64.9747 162.739 64.8647 162.796 64.7546 162.848C62.64 163.882 60.9188 163.996 59.8744 162.512C59.8465 161.731 59.6837 160.963 59.3944 160.246C59.4455 161.047 59.2495 161.844 58.8371 162.512H56.7342C54.5681 164.061 53.4558 164.223 54.9592 169.309C55.3784 170.726 57.045 178.971 56.3894 180.194C56.1997 180.172 54.1817 171.14 53.9991 171.103C49.8823 170.263 47.2667 162.955 47.6015 162.542C47.5999 161.366 47.8508 160.206 48.3345 159.153C48.9465 157.818 49.9005 156.699 51.0837 155.93C51.7889 155.562 52.5242 155.264 53.2802 155.041C53.2989 155.036 53.3153 155.031 53.334 155.026C53.5659 154.959 53.8024 154.897 54.0389 154.844C54.5275 154.733 55.0216 154.652 55.5188 154.603C55.554 154.6 55.5891 154.598 55.6219 154.598C55.8204 154.598 56.0153 154.656 56.1862 154.765C56.1886 154.765 56.1886 154.767 56.1909 154.767C56.3131 154.844 56.4198 154.946 56.5047 155.068C56.6543 155.274 56.7351 155.527 56.7342 155.788H59.0759C59.1625 155.788 59.2492 155.791 59.3358 155.796C60.8987 155.853 62.3855 156.537 63.505 157.713C64.6246 158.89 65.2965 160.474 65.3892 162.156C65.3962 162.276 65.3986 162.393 65.3986 162.512Z" fill="#2F2E41"/>
<path d="M51.591 160.337C53.8887 160.337 55.7513 158.33 55.7513 155.854C55.7513 153.378 53.8887 151.371 51.591 151.371C49.2933 151.371 47.4307 153.378 47.4307 155.854C47.4307 158.33 49.2933 160.337 51.591 160.337Z" fill="#2F2E41"/>
<path d="M41.3555 238.583C41.2735 238.64 41.1879 238.691 41.0995 238.735C40.7918 238.899 40.4572 238.995 40.1149 239.019C39.7725 239.043 39.4291 238.994 39.1043 238.875C38.7795 238.757 38.4796 238.57 38.2218 238.326C37.9639 238.082 37.7532 237.786 37.6015 237.454C37.4499 237.123 37.3604 236.762 37.3381 236.394C37.3157 236.025 37.3611 235.655 37.4714 235.305C37.5818 234.955 37.7551 234.632 37.9814 234.354C38.2077 234.076 38.4825 233.849 38.7902 233.685C38.8347 233.662 38.8798 233.64 38.9255 233.619L38.9181 229.505L38.9107 224.665L38.9033 219.56L42.5092 218.601L42.4684 225.996L42.4536 229.266L42.4202 235.298C42.6115 235.894 42.6105 236.543 42.4173 237.14C42.2241 237.736 41.85 238.245 41.3555 238.583Z" fill="#A0616A"/>
<path d="M55.6086 186.082L55.2338 186.838L45.8183 205.701L45.5363 206.265L44.2045 218.629L43.7593 222.77L43.6443 223.805V223.809L43.5813 224.409L43.0619 229.226L42.4534 229.266L41.4296 229.338L38.918 229.506L37.0371 229.633L37.0408 226.392L37.0742 201.824L43.9151 188.353L44.0821 188.021L46.7235 182.82C47.0136 182.25 47.502 181.827 48.0814 181.645C48.6607 181.463 49.2835 181.536 49.8128 181.849C49.8754 181.886 49.9363 181.926 49.9955 181.969L55.6086 186.082Z" fill="#3F3D56"/>
<path d="M3.54982 258.545C5.51033 258.545 7.09964 256.833 7.09964 254.72C7.09964 252.608 5.51033 250.896 3.54982 250.896C1.58931 250.896 0 252.608 0 254.72C0 256.833 1.58931 258.545 3.54982 258.545Z" fill="#F2F2F2"/>
<path d="M246.93 116.088C246.93 116.088 245.643 130.77 244.93 141.639V141.647C244.875 142.522 244.823 143.368 244.774 144.185L244.396 144.221C244.136 144.249 243.88 144.281 243.621 144.309C239.473 144.785 235.366 145.572 231.245 146.256C230.848 146.32 230.451 146.384 230.054 146.447C225.943 147.171 221.784 147.535 217.618 147.535H217.541C217.574 146.975 217.626 146.244 217.685 145.404C218.034 140.651 218.739 132.413 218.739 132.413L219.395 127.644L221.543 112.022L221.558 111.902L221.577 111.766L221.681 111.739L226.192 110.475L228.618 109.8L230.028 107.705L231.905 104.915L239.711 105.95L240.282 108.245L241.339 112.474L241.373 112.61L245.468 115.172L246.93 116.088Z" fill="#E6E6E6"/>
<path d="M235.788 104.012C240.356 104.012 244.06 100.021 244.06 95.0987C244.06 90.1761 240.356 86.1855 235.788 86.1855C231.219 86.1855 227.516 90.1761 227.516 95.0987C227.516 100.021 231.219 104.012 235.788 104.012Z" fill="#FFB6B6"/>
<path d="M227.12 89.7038C227.846 90.3362 227.68 93.412 228.49 92.9107C229.299 92.4094 229.467 91.5116 230.399 91.5021C231.159 91.5474 231.876 91.8968 232.409 92.482C232.508 92.5786 232.602 92.6799 232.694 92.78C232.778 92.7483 232.86 92.7196 232.948 92.6961C233.601 92.5241 234.291 92.6288 234.875 92.9886C234.336 93.0301 233.822 93.2532 233.407 93.6265C233.585 93.8413 233.765 94.0573 233.955 94.2569C235.539 95.9298 238.788 94.1483 240.972 93.7463C239.153 95.8865 239.511 97.0813 239.964 99.9419L239.966 100.098C240.059 99.4384 242.02 99.4713 241.696 100.347C241.29 101.211 240.782 102.016 240.185 102.741C242.857 100.746 245.014 97.9971 245.49 94.6763C245.665 93.9955 245.701 93.282 245.594 92.585C245.516 92.2408 245.334 91.9343 245.077 91.7133C244.82 91.4924 244.502 91.3694 244.173 91.3637C244.47 90.3451 244.506 89.2586 244.277 88.2197C244.047 87.1809 243.56 86.2285 242.868 85.4638C242.177 84.6992 241.305 84.1509 240.347 83.8771C239.389 83.6034 238.38 83.6145 237.428 83.9092C236.559 84.242 235.711 84.6362 234.89 85.0893C234.062 85.5441 233.124 85.7152 232.203 85.5797C231.629 85.452 231.048 85.1318 230.485 85.3131C229.834 85.5237 229.553 86.2654 229.292 86.9815C229.783 87.1744 230.208 87.5206 230.515 87.9756C230.008 87.7741 229.455 87.7498 228.935 87.9065C228.925 87.9083 228.916 87.911 228.907 87.9146C228.317 89.0541 228.283 89.3335 227.12 89.7038Z" fill="#2F2E41"/>
<path d="M231.244 146.256C230.847 146.32 230.451 146.384 230.054 146.448C225.942 147.171 221.784 147.535 217.618 147.535C217.648 146.828 217.666 146.116 217.685 145.405C217.711 144.409 217.729 143.41 217.748 142.411C217.833 137.882 217.919 133.354 218.004 128.828C218.008 128.612 218.011 128.392 218.015 128.176C218.1 123.599 218.215 118.87 219.978 114.701C220.38 113.751 220.882 112.854 221.473 112.027C221.502 111.983 221.528 111.943 221.558 111.903C221.599 111.847 221.64 111.791 221.68 111.739C222.154 111.103 222.68 110.516 223.253 109.984C224.139 109.105 225.179 108.425 226.311 107.983C227.444 107.542 228.647 107.348 229.849 107.414L230.027 107.706L230.265 108.101C230.109 109.352 229.95 110.608 229.801 111.863C229.159 117.303 228.699 122.776 229.215 128.22C229.653 132.797 230.777 137.278 231.133 141.859C231.148 142.011 231.159 142.167 231.17 142.319C231.258 143.629 231.283 144.943 231.244 146.256Z" fill="#3F3D56"/>
<path d="M244.395 144.218C244.578 143.366 244.75 142.508 244.933 141.645V141.639C245.637 138.23 246.344 134.82 247.052 131.41C247.98 126.941 248.908 122.318 248.112 117.821C248.031 117.358 247.928 116.9 247.803 116.449C247.762 116.302 247.717 116.154 247.671 116.007C247.351 114.971 246.917 113.98 246.378 113.056C244.968 110.63 242.858 108.745 240.282 108.248C240.234 108.232 240.185 108.221 240.135 108.215L239.572 108.778C239.456 109.942 239.344 111.116 239.222 112.286C238.644 117.821 237.889 123.351 236.159 128.585C234.679 133.066 232.508 137.257 231.154 141.781C231.149 141.809 231.139 141.836 231.134 141.858C230.687 143.363 230.326 144.896 230.054 146.448C230.449 146.382 230.85 146.322 231.245 146.257C235.368 145.574 239.471 144.787 243.619 144.311L244.395 144.218Z" fill="#3F3D56"/>
<path d="M252.453 93.2226L252.216 90.7682L252.16 90.2005L252.075 89.2892L250.242 70.3457C250.394 69.7992 250.373 69.2141 250.183 68.6817C249.993 68.1494 249.645 67.6999 249.192 67.4037C248.67 67.068 248.045 66.9695 247.455 67.1299C246.865 67.2903 246.358 67.6964 246.046 68.2591C246.035 68.2791 246.028 68.2991 246.017 68.319C245.705 68.9045 245.618 69.5977 245.773 70.2516C245.928 70.9054 246.314 71.4683 246.848 71.8207C246.958 71.889 247.074 71.9478 247.193 71.9966L247.178 72.5283L247.133 74.1952L247.1 75.4543L247.029 77.9607L247.003 78.9321L246.918 82.0819L246.837 85.1199L246.736 88.8015L246.658 91.6316L247.604 91.8915L252.453 93.2226Z" fill="#FFB6B6"/>
<path d="M254.286 97.2562C254.246 96.9273 254.173 96.6042 254.067 96.2929C253.588 95.3975 253.295 96.6486 253.559 94.2502C253.77 92.3035 252.501 92.5474 252.958 92.1316C253.711 91.4441 252.672 91.1403 252.216 90.7686C252.012 90.6046 251.926 90.4288 252.16 90.2009C252.27 90.0979 252.392 90.0119 252.524 89.9451C253.021 89.6653 252.735 89.4534 252.075 89.2895C250.589 89.0228 249.088 88.8719 247.582 88.8378C247.219 88.8178 246.922 88.8098 246.736 88.8018C246.599 88.7979 246.521 88.7979 246.521 88.7979C246.262 89.0625 246.1 89.4186 246.065 89.8012C245.955 90.6136 246.013 91.4422 246.236 92.2275C246.388 92.7729 246.591 93.3005 246.84 93.8025C246.936 93.9907 246.979 94.2042 246.966 94.4181V94.4221C246.94 94.5484 246.888 94.6669 246.814 94.7692C246.741 94.8714 246.647 94.9549 246.54 95.0137C246.039 95.3735 246.317 96.129 246.707 96.8405C247.038 97.3173 247.319 97.8321 247.545 98.3755C247.545 98.8672 244.458 109.316 244.458 109.316L245.594 125.094C246.436 125.793 247.498 126.11 248.554 125.977C249.435 125.818 250.249 125.371 250.888 124.698C251.786 123.752 252.516 122.637 253.043 121.408C256.041 114.921 254.924 101.086 254.286 97.2562Z" fill="#3F3D56"/>
<path d="M197.998 71.2363C198.561 71.532 198.995 72.0527 199.207 72.6876C199.419 73.3225 199.393 74.0215 199.134 74.6359C199.079 74.7599 199.015 74.8788 198.943 74.9914L209.617 90.9136L205.648 95.7366L195.558 75.4719C195.148 75.111 194.86 74.614 194.74 74.0585C194.619 73.5029 194.673 72.9201 194.892 72.4008C195.15 71.8068 195.616 71.3472 196.187 71.1233C196.759 70.8993 197.39 70.9294 197.942 71.2067C197.961 71.2163 197.98 71.2262 197.998 71.2363Z" fill="#FFB6B6"/>
<path d="M227.92 117.922C227.92 117.922 226.493 123.421 219.834 119.381C213.174 115.34 205.972 100.252 205.9 99.2187C205.828 98.1849 206.723 99.0441 205.257 97.2202C204.065 95.7369 205.242 95.1706 204.649 95.1019C203.084 94.921 205.801 92.7835 203.868 93.0287C201.936 93.274 208.237 88.4482 208.237 88.4482C208.237 88.4482 209.385 88.4779 210.262 91.1153C210.754 92.5967 210.289 93.6102 211.462 93.6045C212.635 93.5987 212.133 96.5999 212.381 96.9965C212.629 97.3931 220.635 104.18 220.635 104.18L227.92 117.922Z" fill="#3F3D56"/>
<path d="M219.06 83.1449C240.369 83.1449 257.643 64.5323 257.643 41.5725C257.643 18.6126 240.369 0 219.06 0C197.752 0 180.478 18.6126 180.478 41.5725C180.478 64.5323 197.752 83.1449 219.06 83.1449Z" fill="#6C63FF"/>
<path d="M199.455 32.3216C199.857 33.1449 200.163 34.0179 200.368 34.9212C200.891 37.2964 200.524 39.4519 199.321 40.4629C199.2 40.5679 199.07 40.6597 198.933 40.7369C197.428 41.5852 195.351 40.6899 193.686 38.6866C193.114 37.9899 192.624 37.2207 192.225 36.3959C191.826 35.5817 191.522 34.7175 191.32 33.8229C190.733 31.1997 191.233 28.8338 192.743 27.983C194.743 26.8562 197.747 28.8014 199.455 32.3216Z" fill="white"/>
<path d="M198.816 36.3812C199.427 37.6344 199.606 39.0807 199.321 40.4626C199.2 40.5676 199.07 40.6594 198.933 40.7366C197.427 41.5849 195.35 40.6896 193.686 38.6863C193.114 37.9896 192.623 37.2204 192.225 36.3956C191.826 35.5814 191.522 34.7172 191.319 33.8226C192.629 33.0947 194.153 32.9552 195.558 33.4347C196.963 33.9141 198.134 34.9735 198.816 36.3812Z" fill="#3F3D56"/>
<path d="M214.433 23.8811C216.073 27.2609 215.923 30.8664 214.142 32.1478C214.067 32.2021 213.99 32.2518 213.911 32.2965C211.915 33.4208 208.911 31.4756 207.203 27.9554C206.804 27.1429 206.501 26.2803 206.3 25.3873C205.711 22.7593 206.211 20.3934 207.721 19.5426C209.72 18.4157 212.725 20.361 214.433 23.8811Z" fill="white"/>
<path d="M213.646 28.0252C214.264 29.2915 214.44 30.7543 214.142 32.1484C214.068 32.2027 213.991 32.2524 213.911 32.2971C211.916 33.4214 208.911 31.4762 207.203 27.956C206.805 27.1434 206.501 26.2808 206.3 25.3879C207.603 24.7162 209.097 24.6158 210.467 25.1077C211.838 25.5997 212.977 26.6457 213.646 28.0252Z" fill="#3F3D56"/>
<path d="M197.563 56.2023C202.106 65.562 210.919 70.2585 217.248 66.6923C223.577 63.1262 225.024 52.6477 220.482 43.2881C215.491 51.1277 207.934 55.5417 197.563 56.2023Z" fill="white"/>
<path opacity="0.2" d="M253.296 22.369C249.624 14.8049 243.882 8.64133 236.847 4.71505C229.813 0.788774 221.828 -0.710022 213.976 0.422133C223.247 1.73671 231.76 6.63441 237.931 14.2045C244.102 21.7747 247.513 31.5021 247.527 41.5781C247.542 51.6541 244.16 61.3929 238.01 68.9838C231.861 76.5746 223.362 81.5009 214.095 82.8467C221.097 83.838 228.218 82.7387 234.68 79.6687C241.143 76.5987 246.699 71.6759 250.743 65.4369C254.787 59.198 257.164 51.8825 257.614 44.288C258.064 36.6935 256.57 29.1116 253.296 22.369Z" fill="black"/>
</svg>
