<svg width="51" height="40" viewBox="0 0 51 40" fill="none" xmlns="http://www.w3.org/2000/svg">
<path d="M50.8698 10.4792C50.8717 10.2161 50.8087 9.95515 50.6843 9.71149C50.5598 9.46784 50.3765 9.24622 50.1448 9.05936L39.5448 0.57999C39.3112 0.394641 39.0342 0.248002 38.7296 0.14848C38.425 0.0489581 38.0989 -0.00148825 37.7699 3.34261e-05C37.4408 -0.00148825 37.1147 0.0489581 36.8101 0.14848C36.5055 0.248002 36.2285 0.394641 35.9949 0.57999L28.9199 6.23957L1.59491 28.0979C1.36321 28.2848 1.1799 28.5064 1.05549 28.7501C0.931075 28.9937 0.868013 29.2546 0.869915 29.5178V37.9972C0.869915 38.5276 1.13331 39.0363 1.60215 39.4113C2.07099 39.7864 2.70687 39.997 3.36991 39.997H13.9699C14.3197 40.0123 14.6696 39.9685 14.9969 39.8686C15.3243 39.7687 15.6217 39.6149 15.8699 39.4171L43.0448 17.5587L50.1448 11.9991C50.373 11.8053 50.5589 11.5822 50.6948 11.3392C50.7189 11.1798 50.7189 11.0186 50.6948 10.8592C50.7065 10.7661 50.7065 10.6723 50.6948 10.5792L50.8698 10.4792ZM12.9449 35.9973H5.86991V30.3378L30.6949 10.4792L37.7699 16.1388L12.9449 35.9973ZM41.2948 13.319L34.2199 7.65946L37.7699 4.83967L44.8198 10.4792L41.2948 13.319Z" fill="black"/>
</svg>
