<svg width="200" height="110" viewBox="0 0 200 110" fill="none" xmlns="http://www.w3.org/2000/svg">
<path d="M57.9236 88.75C56.8428 88.75 55.7863 89.1166 54.8876 89.8033C53.989 90.4901 53.2886 91.4662 52.875 92.6083C52.4614 93.7503 52.3532 95.007 52.5641 96.2194C52.7749 97.4318 53.2954 98.5454 54.0596 99.4195C54.8238 100.294 55.7975 100.889 56.8575 101.13C57.9175 101.371 59.0162 101.247 60.0147 100.774C61.0132 100.301 61.8667 99.5002 62.4671 98.4724C63.0676 97.4446 63.3881 96.2362 63.3881 95C63.3881 93.3424 62.8123 91.7527 61.7875 90.5806C60.7627 89.4085 59.3728 88.75 57.9236 88.75ZM57.9236 98.7501C57.2751 98.7501 56.6412 98.5301 56.102 98.1181C55.5628 97.706 55.1426 97.1203 54.8944 96.4351C54.6463 95.7499 54.5813 94.9959 54.7079 94.2685C54.8344 93.541 55.1466 92.8728 55.6052 92.3484C56.0637 91.8239 56.6479 91.4668 57.2839 91.3221C57.9199 91.1774 58.5792 91.2517 59.1783 91.5355C59.7774 91.8193 60.2894 92.3 60.6497 92.9167C61.01 93.5333 61.2023 94.2584 61.2023 95C61.2023 95.9946 60.8568 96.9484 60.2419 97.6517C59.6271 98.355 58.7931 98.7501 57.9236 98.7501ZM63.3881 87.5C63.1719 87.5 62.9606 87.5733 62.7809 87.7107C62.6011 87.848 62.4611 88.0433 62.3783 88.2717C62.2956 88.5001 62.274 88.7514 62.3162 88.9939C62.3583 89.2364 62.4624 89.4591 62.6153 89.6339C62.7681 89.8087 62.9628 89.9278 63.1748 89.976C63.3868 90.0242 63.6066 89.9995 63.8063 89.9049C64.006 89.8103 64.1767 89.6501 64.2968 89.4445C64.4169 89.2389 64.4809 88.9973 64.4809 88.75C64.4809 88.4185 64.3658 88.1006 64.1608 87.8661C63.9559 87.6317 63.6779 87.5 63.3881 87.5ZM68.787 90.3C68.7689 89.2318 68.5915 88.175 68.2624 87.175C67.9572 86.2651 67.4882 85.4388 66.8857 84.7496C66.2831 84.0605 65.5607 83.524 64.7651 83.175C63.8908 82.7986 62.9668 82.5957 62.0329 82.575C60.9727 82.5 60.623 82.5 57.9236 82.5C55.2241 82.5 54.8744 82.5 53.8143 82.575C52.8803 82.5957 51.9563 82.7986 51.082 83.175C50.2865 83.524 49.564 84.0605 48.9615 84.7496C48.3589 85.4388 47.8899 86.2651 47.5847 87.175C47.2557 88.175 47.0782 89.2318 47.0601 90.3C46.9946 91.525 46.9946 91.925 46.9946 95C46.9946 98.0751 46.9946 98.4751 47.0601 99.7001C47.0782 100.768 47.2557 101.825 47.5847 102.825C47.8899 103.735 48.3589 104.561 48.9615 105.25C49.564 105.94 50.2865 106.476 51.082 106.825C51.9563 107.201 52.8803 107.404 53.8143 107.425C54.9072 107.425 55.2241 107.5 57.9236 107.5C60.623 107.5 60.9727 107.5 62.0329 107.425C62.9668 107.404 63.8908 107.201 64.7651 106.825C65.5607 106.476 66.2831 105.94 66.8857 105.25C67.4882 104.561 67.9572 103.735 68.2624 102.825C68.5915 101.825 68.7689 100.768 68.787 99.7001C68.787 98.4501 68.8525 98.0751 68.8525 95C68.8525 91.925 68.8525 91.525 68.787 90.3ZM66.6012 99.5876C66.582 100.381 66.4529 101.166 66.2187 101.913C66.025 102.503 65.7189 103.037 65.3225 103.475C64.9415 103.929 64.4739 104.275 63.9564 104.488C63.3017 104.766 62.611 104.919 61.9126 104.938C60.8853 104.938 60.5684 105 57.9126 105C55.2569 105 54.9509 105 53.9235 105C53.2263 104.979 52.5364 104.832 51.8798 104.563C51.3636 104.341 50.8969 103.991 50.5137 103.538C50.1171 103.102 49.8142 102.567 49.6285 101.975C49.3856 101.23 49.2527 100.445 49.235 99.6501C49.235 98.4001 49.235 98.0876 49.235 95.0625C49.235 92.0375 49.235 91.675 49.235 90.475C49.2538 89.6765 49.3868 88.8869 49.6285 88.1375C49.817 87.5508 50.1197 87.0208 50.5137 86.5875C50.8947 86.134 51.3622 85.7874 51.8798 85.575C52.5345 85.2961 53.2252 85.144 53.9235 85.125C54.9509 85 55.2678 85 57.9236 85C60.5793 85 60.8962 85 61.9236 85C62.6254 85.0204 63.3195 85.1724 63.9782 85.45C64.4912 85.6657 64.9546 86.0119 65.3334 86.4625C65.73 86.8982 66.033 87.433 66.2187 88.025C66.4862 88.7857 66.6378 89.5933 66.6667 90.4125C66.6667 91.6625 66.7214 91.975 66.7214 95C66.7214 98.0251 66.6667 98.3876 66.6667 99.5876H66.6012Z" fill="black"/>
<path d="M101.771 86.6501H103.825V82.675C102.831 82.5567 101.831 82.4983 100.831 82.5C97.8583 82.5 95.8255 84.575 95.8255 88.3751V91.6501H92.4703V96.1001H95.8255V107.5H99.8473V96.1001H103.192L103.694 91.6501H99.8473V88.8126C99.8473 87.5001 100.153 86.6501 101.771 86.6501Z" fill="black"/>
<path d="M144.809 91.2484C143.83 91.248 142.867 91.5248 142.005 92.0541C141.926 91.8171 141.787 91.6131 141.604 91.4692C141.422 91.3253 141.205 91.2483 140.984 91.2484H136.612C136.469 91.2483 136.326 91.2806 136.194 91.3434C136.061 91.4062 135.941 91.4982 135.839 91.6143C135.738 91.7304 135.657 91.8683 135.602 92.02C135.547 92.1717 135.519 92.3343 135.519 92.4984V107.498C135.519 107.663 135.547 107.825 135.602 107.977C135.657 108.129 135.738 108.266 135.839 108.383C135.941 108.499 136.061 108.591 136.194 108.654C136.326 108.716 136.469 108.749 136.612 108.748H140.984C141.127 108.749 141.269 108.716 141.402 108.654C141.535 108.591 141.655 108.499 141.757 108.383C141.858 108.266 141.939 108.129 141.994 107.977C142.048 107.825 142.077 107.663 142.077 107.498V100.623C142.077 100.292 142.192 99.974 142.397 99.7396C142.602 99.5052 142.88 99.3735 143.169 99.3735C143.459 99.3735 143.737 99.5052 143.942 99.7396C144.147 99.974 144.262 100.292 144.262 100.623V107.498C144.262 107.663 144.29 107.825 144.345 107.977C144.4 108.129 144.481 108.266 144.582 108.383C144.684 108.499 144.804 108.591 144.937 108.654C145.07 108.716 145.212 108.749 145.355 108.748H149.727C149.87 108.749 150.013 108.716 150.145 108.654C150.278 108.591 150.398 108.499 150.5 108.383C150.601 108.266 150.682 108.129 150.737 107.977C150.792 107.825 150.82 107.663 150.82 107.498V98.1235C150.818 96.3008 150.184 94.5534 149.057 93.2646C147.93 91.9758 146.402 91.2507 144.809 91.2484ZM148.634 106.248H146.448V100.623C146.448 99.6289 146.103 98.6751 145.488 97.9718C144.873 97.2685 144.039 96.8735 143.169 96.8735C142.3 96.8735 141.466 97.2685 140.851 97.9718C140.236 98.6751 139.891 99.6289 139.891 100.623V106.248H137.705V93.7484H139.891V94.6274C139.891 94.8864 139.961 95.1389 140.092 95.3502C140.223 95.5614 140.408 95.7209 140.622 95.8067C140.836 95.8924 141.068 95.9002 141.285 95.8289C141.503 95.7576 141.696 95.6107 141.837 95.4086C142.328 94.6961 143.001 94.1767 143.762 93.9227C144.523 93.6687 145.334 93.6928 146.083 93.9918C146.831 94.2908 147.479 94.8497 147.937 95.5904C148.394 96.3311 148.638 97.2167 148.634 98.1235V106.248ZM133.333 91.2484H128.962C128.818 91.2483 128.676 91.2806 128.543 91.3434C128.411 91.4062 128.29 91.4982 128.189 91.6143C128.087 91.7304 128.007 91.8683 127.952 92.02C127.897 92.1717 127.869 92.3343 127.869 92.4984V107.498C127.869 107.663 127.897 107.825 127.952 107.977C128.007 108.129 128.087 108.266 128.189 108.383C128.29 108.499 128.411 108.591 128.543 108.654C128.676 108.716 128.818 108.749 128.962 108.748H133.333C133.477 108.749 133.619 108.716 133.752 108.654C133.884 108.591 134.005 108.499 134.106 108.383C134.208 108.266 134.288 108.129 134.343 107.977C134.398 107.825 134.426 107.663 134.426 107.498V92.4984C134.426 92.3343 134.398 92.1717 134.343 92.02C134.288 91.8683 134.208 91.7304 134.106 91.6143C134.005 91.4982 133.884 91.4062 133.752 91.3434C133.619 91.2806 133.477 91.2483 133.333 91.2484ZM132.24 106.248H130.055V93.7484H132.24V106.248ZM131.164 81.9271C130.685 81.8944 130.206 81.9733 129.755 82.1589C129.305 82.3446 128.891 82.6333 128.541 83.0073C128.191 83.3813 127.911 83.8328 127.718 84.3345C127.525 84.8362 127.424 85.3775 127.419 85.9255C127.415 86.4735 127.509 87.0168 127.694 87.5223C127.879 88.0277 128.152 88.4849 128.496 88.8658C128.841 89.2468 129.249 89.5437 129.697 89.7384C130.145 89.9331 130.623 90.0216 131.102 89.9984H131.133C131.612 90.031 132.093 89.9514 132.544 89.7645C132.996 89.5776 133.41 89.2873 133.76 88.9113C134.11 88.5353 134.39 88.0816 134.582 87.5779C134.774 87.0741 134.874 86.5309 134.876 85.9815C134.878 85.432 134.782 84.8878 134.594 84.3822C134.406 83.8765 134.13 83.42 133.783 83.0406C133.435 82.6611 133.024 82.3667 132.573 82.1752C132.123 81.9838 131.643 81.8994 131.164 81.9271H131.164ZM131.133 87.4984H131.102C130.913 87.5247 130.721 87.5044 130.539 87.4389C130.358 87.3735 130.191 87.2644 130.049 87.119C129.907 86.9736 129.794 86.7952 129.718 86.5958C129.641 86.3963 129.603 86.1805 129.605 85.9628C129.605 85.0302 130.217 84.4271 131.164 84.4271C131.355 84.398 131.549 84.4161 131.733 84.48C131.917 84.5439 132.088 84.6523 132.232 84.7978C132.377 84.9433 132.492 85.1226 132.571 85.3236C132.65 85.5245 132.691 85.7425 132.69 85.9628C132.69 86.8954 132.078 87.4984 131.133 87.4984Z" fill="black"/>
<path d="M195.629 92.1379C195.683 90.3487 195.341 88.5729 194.634 86.9754C194.155 86.3198 193.49 85.8775 192.755 85.7253C189.714 85.4098 186.66 85.2804 183.607 85.3378C180.565 85.2778 177.523 85.403 174.492 85.7128C173.893 85.8375 173.339 86.1589 172.897 86.6379C171.913 87.6754 171.804 89.4504 171.695 90.9504C171.536 93.6473 171.536 96.3534 171.695 99.0504C171.726 99.8947 171.836 100.733 172.022 101.55C172.154 102.182 172.421 102.766 172.798 103.25C173.243 103.755 173.811 104.094 174.427 104.225C176.783 104.558 179.157 104.696 181.531 104.638C185.356 104.7 188.711 104.638 192.678 104.288C193.309 104.165 193.893 103.825 194.35 103.313C194.656 102.963 194.885 102.534 195.017 102.063C195.408 100.691 195.6 99.2555 195.585 97.8129C195.629 97.1129 195.629 92.8879 195.629 92.1379ZM181.137 98.5629V90.8254L187.607 94.7129C185.793 95.8629 183.399 97.1629 181.137 98.5629Z" fill="black"/>
<path d="M24.0438 87.2498C23.2223 87.6574 22.3535 87.9269 21.4645 88.0498C22.4024 87.4089 23.1053 86.4008 23.4427 85.2123C22.5613 85.8124 21.5965 86.2352 20.5902 86.4623C19.9176 85.628 19.0219 85.0726 18.0435 84.8833C17.0652 84.694 16.0596 84.8815 15.1845 85.4163C14.3094 85.9511 13.6142 86.8029 13.2079 87.8383C12.8017 88.8737 12.7074 90.034 12.9399 91.1373C11.1579 91.0342 9.41471 90.5035 7.82368 89.5796C6.23265 88.6558 4.82935 87.3594 3.70492 85.7748C3.31053 86.5625 3.1033 87.4546 3.10383 88.3623C3.10243 89.2053 3.2833 90.0356 3.63034 90.7793C3.97737 91.5229 4.47981 92.1569 5.0929 92.6248C4.38031 92.6026 3.68294 92.3839 3.06011 91.9873V92.0498C3.06545 93.2309 3.42732 94.3737 4.0845 95.2848C4.74168 96.1959 5.65384 96.8194 6.66668 97.0498C6.27679 97.1855 5.872 97.2571 5.46449 97.2623C5.1824 97.2586 4.90101 97.2293 4.62296 97.1748C4.91138 98.1908 5.46954 99.0788 6.21976 99.715C6.96999 100.351 7.87496 100.704 8.80876 100.725C7.23193 102.144 5.28512 102.918 3.27869 102.925C2.91337 102.926 2.54834 102.901 2.18579 102.85C4.23435 104.363 6.62166 105.166 9.06012 105.162C10.7429 105.182 12.4122 104.819 13.9706 104.092C15.5291 103.366 16.9454 102.292 18.1369 100.933C19.3283 99.5737 20.271 97.9566 20.9099 96.176C21.5488 94.3953 21.8711 92.487 21.858 90.5623C21.858 90.3498 21.858 90.1248 21.858 89.8998C22.7156 89.1683 23.4552 88.2716 24.0438 87.2498Z" fill="black"/>
<path d="M20.8414 29V7.18182H35.2874V10.9851H25.4543V16.1839H34.3286V19.9872H25.4543V29H20.8414ZM44.4973 29.3196C42.8425 29.3196 41.4114 28.968 40.204 28.2649C39.0037 27.5547 38.0769 26.5675 37.4235 25.3033C36.77 24.032 36.4433 22.5582 36.4433 20.8821C36.4433 19.1918 36.77 17.7145 37.4235 16.4503C38.0769 15.179 39.0037 14.1918 40.204 13.4886C41.4114 12.7784 42.8425 12.4233 44.4973 12.4233C46.1521 12.4233 47.5797 12.7784 48.78 13.4886C49.9874 14.1918 50.9178 15.179 51.5712 16.4503C52.2246 17.7145 52.5513 19.1918 52.5513 20.8821C52.5513 22.5582 52.2246 24.032 51.5712 25.3033C50.9178 26.5675 49.9874 27.5547 48.78 28.2649C47.5797 28.968 46.1521 29.3196 44.4973 29.3196ZM44.5186 25.804C45.2715 25.804 45.9 25.5909 46.4043 25.1648C46.9085 24.7315 47.2885 24.142 47.5442 23.3963C47.807 22.6506 47.9384 21.8018 47.9384 20.8501C47.9384 19.8984 47.807 19.0497 47.5442 18.304C47.2885 17.5582 46.9085 16.9687 46.4043 16.5355C45.9 16.1023 45.2715 15.8857 44.5186 15.8857C43.7587 15.8857 43.1195 16.1023 42.601 16.5355C42.0896 16.9687 41.7026 17.5582 41.4398 18.304C41.1841 19.0497 41.0563 19.8984 41.0563 20.8501C41.0563 21.8018 41.1841 22.6506 41.4398 23.3963C41.7026 24.142 42.0896 24.7315 42.601 25.1648C43.1195 25.5909 43.7587 25.804 44.5186 25.804ZM60.0406 7.18182V29H55.5023V7.18182H60.0406ZM68.2145 7.18182V29H63.6761V7.18182H68.2145ZM79.2434 29.3196C77.5886 29.3196 76.1575 28.968 74.9501 28.2649C73.7498 27.5547 72.823 26.5675 72.1695 25.3033C71.5161 24.032 71.1894 22.5582 71.1894 20.8821C71.1894 19.1918 71.5161 17.7145 72.1695 16.4503C72.823 15.179 73.7498 14.1918 74.9501 13.4886C76.1575 12.7784 77.5886 12.4233 79.2434 12.4233C80.8982 12.4233 82.3258 12.7784 83.5261 13.4886C84.7335 14.1918 85.6639 15.179 86.3173 16.4503C86.9707 17.7145 87.2974 19.1918 87.2974 20.8821C87.2974 22.5582 86.9707 24.032 86.3173 25.3033C85.6639 26.5675 84.7335 27.5547 83.5261 28.2649C82.3258 28.968 80.8982 29.3196 79.2434 29.3196ZM79.2647 25.804C80.0176 25.804 80.6461 25.5909 81.1504 25.1648C81.6546 24.7315 82.0346 24.142 82.2903 23.3963C82.5531 22.6506 82.6845 21.8018 82.6845 20.8501C82.6845 19.8984 82.5531 19.0497 82.2903 18.304C82.0346 17.5582 81.6546 16.9687 81.1504 16.5355C80.6461 16.1023 80.0176 15.8857 79.2647 15.8857C78.5048 15.8857 77.8656 16.1023 77.3471 16.5355C76.8357 16.9687 76.4487 17.5582 76.1859 18.304C75.9302 19.0497 75.8024 19.8984 75.8024 20.8501C75.8024 21.8018 75.9302 22.6506 76.1859 23.3963C76.4487 24.142 76.8357 24.7315 77.3471 25.1648C77.8656 25.5909 78.5048 25.804 79.2647 25.804ZM93.0662 29L88.6131 12.6364H93.2047L95.7402 23.6307H95.8894L98.5314 12.6364H103.038L105.722 23.5668H105.861L108.354 12.6364H112.935L108.492 29H103.688L100.875 18.7088H100.673L97.8602 29H93.0662ZM132.793 22.0327V12.6364H137.331V29H132.974V26.0277H132.803C132.434 26.9865 131.82 27.7571 130.96 28.3395C130.108 28.9219 129.068 29.2131 127.839 29.2131C126.745 29.2131 125.783 28.9645 124.952 28.4673C124.121 27.9702 123.471 27.2635 123.002 26.3473C122.541 25.4311 122.306 24.3338 122.299 23.0554V12.6364H126.838V22.2457C126.845 23.2116 127.104 23.9751 127.615 24.5362C128.127 25.0973 128.812 25.3778 129.671 25.3778C130.218 25.3778 130.73 25.2536 131.205 25.005C131.681 24.7493 132.065 24.3729 132.356 23.8757C132.654 23.3786 132.8 22.7642 132.793 22.0327ZM154.576 17.3026L150.421 17.5582C150.35 17.2031 150.198 16.8835 149.963 16.5994C149.729 16.3082 149.42 16.0774 149.037 15.907C148.66 15.7294 148.209 15.6406 147.684 15.6406C146.98 15.6406 146.387 15.7898 145.904 16.0881C145.421 16.3793 145.18 16.7699 145.18 17.2599C145.18 17.6506 145.336 17.9808 145.649 18.2507C145.961 18.5206 146.497 18.7372 147.257 18.9006L150.219 19.4972C151.81 19.8239 152.996 20.3494 153.777 21.0739C154.559 21.7983 154.949 22.75 154.949 23.929C154.949 25.0014 154.633 25.9425 154.001 26.7521C153.376 27.5618 152.517 28.1939 151.423 28.6484C150.336 29.0959 149.083 29.3196 147.662 29.3196C145.496 29.3196 143.77 28.8686 142.485 27.9666C141.206 27.0575 140.457 25.8217 140.237 24.2592L144.701 24.0249C144.836 24.6854 145.162 25.1896 145.681 25.5376C146.199 25.8786 146.863 26.049 147.673 26.049C148.468 26.049 149.108 25.8963 149.591 25.5909C150.081 25.2784 150.329 24.8771 150.336 24.3871C150.329 23.9751 150.155 23.6378 149.814 23.375C149.473 23.1051 148.948 22.8991 148.238 22.7571L145.404 22.1925C143.806 21.8729 142.616 21.3189 141.835 20.5305C141.061 19.7422 140.674 18.7372 140.674 17.5156C140.674 16.4645 140.958 15.5589 141.526 14.799C142.101 14.0391 142.907 13.4531 143.944 13.0412C144.988 12.6293 146.21 12.4233 147.609 12.4233C149.676 12.4233 151.302 12.8601 152.488 13.7337C153.681 14.6072 154.377 15.7969 154.576 17.3026ZM172.144 29.3196C170.489 29.3196 169.058 28.968 167.85 28.2649C166.65 27.5547 165.723 26.5675 165.07 25.3033C164.417 24.032 164.09 22.5582 164.09 20.8821C164.09 19.1918 164.417 17.7145 165.07 16.4503C165.723 15.179 166.65 14.1918 167.85 13.4886C169.058 12.7784 170.489 12.4233 172.144 12.4233C173.799 12.4233 175.226 12.7784 176.426 13.4886C177.634 14.1918 178.564 15.179 179.218 16.4503C179.871 17.7145 180.198 19.1918 180.198 20.8821C180.198 22.5582 179.871 24.032 179.218 25.3033C178.564 26.5675 177.634 27.5547 176.426 28.2649C175.226 28.968 173.799 29.3196 172.144 29.3196ZM172.165 25.804C172.918 25.804 173.546 25.5909 174.051 25.1648C174.555 24.7315 174.935 24.142 175.191 23.3963C175.453 22.6506 175.585 21.8018 175.585 20.8501C175.585 19.8984 175.453 19.0497 175.191 18.304C174.935 17.5582 174.555 16.9687 174.051 16.5355C173.546 16.1023 172.918 15.8857 172.165 15.8857C171.405 15.8857 170.766 16.1023 170.247 16.5355C169.736 16.9687 169.349 17.5582 169.086 18.304C168.831 19.0497 168.703 19.8984 168.703 20.8501C168.703 21.8018 168.831 22.6506 169.086 23.3963C169.349 24.142 169.736 24.7315 170.247 25.1648C170.766 25.5909 171.405 25.804 172.165 25.804ZM187.687 19.5398V29H183.149V12.6364H187.474V15.5234H187.666C188.028 14.5717 188.635 13.8189 189.488 13.2649C190.34 12.7038 191.373 12.4233 192.588 12.4233C193.724 12.4233 194.715 12.6719 195.56 13.169C196.405 13.6662 197.062 14.3764 197.531 15.2997C198 16.2159 198.234 17.3097 198.234 18.581V29H193.696V19.3906C193.703 18.3892 193.447 17.608 192.929 17.0469C192.41 16.4787 191.696 16.1946 190.787 16.1946C190.176 16.1946 189.637 16.326 189.168 16.5888C188.706 16.8516 188.344 17.2351 188.081 17.7393C187.826 18.2365 187.694 18.8366 187.687 19.5398Z" fill="black"/>
</svg>
