<svg width="382" height="309" viewBox="0 0 382 309" fill="none" xmlns="http://www.w3.org/2000/svg">
<g clip-path="url(#clip0_10_1034)">
<path d="M172.703 61.9166C177.19 58.0627 183.182 56.8928 186.087 59.3032C188.993 61.7137 187.71 66.791 183.222 70.6458C181.453 72.2063 179.268 73.3868 176.849 74.0885L157.595 90.2149L148.822 82.4271L168.734 67.3561C169.524 65.3014 170.884 63.4362 172.703 61.9166V61.9166Z" fill="#FFB6B6"/>
<path d="M111.126 48.6049L131.314 86.4065L163.55 71.678L175.087 76.8462C175.087 76.8462 148.734 114.033 130.691 109.8C112.647 105.567 80.6065 67.1825 86.3794 55.3359C92.1524 43.4894 111.126 48.6049 111.126 48.6049Z" fill="#E6E6E6"/>
<path d="M204.706 69.9431C200.02 66.2626 198.471 61.2382 201.246 58.7212C204.022 56.2041 210.07 57.1478 214.757 60.8302C216.654 62.2795 218.111 64.091 219.008 66.1132L238.631 81.9195L229.647 89.5341L211.256 73.1435C208.801 72.5336 206.555 71.4362 204.706 69.9431Z" fill="#A0616A"/>
<path d="M303.552 72.3795L265.675 106.417C265.675 106.417 257.17 113.521 243.175 103.277C229.181 93.0324 213.623 76.2252 213.623 76.2252L222.352 68.2069L237.812 79.8495C237.812 79.8495 246.991 82.9671 247.629 84.9843C248.268 87.0015 246.483 87.8359 249.351 87.1895C252.219 86.5431 252.275 85.1012 252.455 87.2881C252.635 89.4749 250.883 92.0308 254.196 89.5552C257.509 87.0796 258.498 88.5856 258.498 88.5856L282.706 61.5185C282.706 61.5185 298.349 51.0773 302.846 60.4367C307.343 69.7961 303.552 72.3795 303.552 72.3795V72.3795Z" fill="#6C63FF"/>
<path d="M102.274 300.537L116.994 300.536L123.996 252.612L102.271 252.613L102.274 300.537Z" fill="#FFB6B6"/>
<path d="M152.706 300.255C153.165 300.907 153.406 303.01 153.406 303.768C153.406 306.096 151.17 307.985 148.41 307.985H102.824C100.942 307.985 99.4162 306.697 99.4162 305.108V303.506C99.4162 303.506 97.1611 298.691 101.804 292.757C101.804 292.757 107.574 297.403 116.197 290.125L118.74 286.237L137.145 297.599L147.347 298.659C149.579 298.891 151.558 298.623 152.706 300.255H152.706Z" fill="#2F2E41"/>
<path d="M271.928 79.3792H308.407V33.8818L271.928 33.8818V79.3792Z" fill="#2F2E41"/>
<path d="M300.218 65.5063L298.941 52.4751H281.955L278.189 66.2814L300.218 65.5063Z" fill="#A0616A"/>
<path opacity="0.1" d="M300.218 65.5063L298.941 52.4751H281.955L278.189 66.2814L300.218 65.5063Z" fill="black"/>
<path d="M113.412 51.0308L113.71 34.2728L101.467 27.8308L88.1538 41.5763L113.412 51.0308Z" fill="#FFB6B6"/>
<path opacity="0.1" d="M113.413 51.0308L114.205 34.6903L101.467 27.8308L105.795 48.0529L113.413 51.0308Z" fill="black"/>
<path d="M287.773 56.6214C298.027 56.6214 306.34 49.6046 306.34 40.949C306.34 32.2934 298.027 25.2766 287.773 25.2766C277.518 25.2766 269.205 32.2934 269.205 40.949C269.205 49.6046 277.518 56.6214 287.773 56.6214Z" fill="#A0616A"/>
<path d="M283.089 24.4606C283.089 24.4606 283.089 18.0266 290.167 19.4053C297.245 20.7841 299.423 23.0819 299.423 23.0819C299.423 23.0819 302.145 26.7584 306.501 27.218C310.857 27.6776 314.668 38.2477 314.123 40.5455C313.579 42.8434 310.857 48.8177 314.668 51.5752C318.479 54.3326 323.924 58.4687 322.29 62.6048C320.657 66.7409 315.757 77.311 315.757 77.311C315.757 77.311 329.424 78.9973 328.307 86.1966C328.307 86.1966 321.746 81.9067 313.034 81.9067C304.323 81.9067 305.412 68.5665 305.412 68.5665C305.412 68.5665 304.867 60.307 303.234 58.0091C301.601 55.7113 303.779 42.8434 295.612 35.9498C287.445 29.0563 283.089 24.4606 283.089 24.4606V24.4606Z" fill="#2F2E41"/>
<path d="M285.267 23.082C285.267 23.082 274.922 24.9203 271.111 33.6521C267.299 42.3839 269.224 44.0087 269.224 44.0087C269.224 44.0087 268.382 49.2666 263.757 51.1103C259.132 52.954 262.944 60.7667 262.944 60.7667C262.944 60.7667 261.855 68.5794 247.154 71.3368C232.454 74.0942 265.589 95.2394 265.589 95.2394C265.589 95.2394 263.207 85.2595 278.452 84.7999C293.697 84.3403 275.466 60.7667 275.466 60.7667L273.833 45.6009C273.833 45.6009 277.1 28.1373 286.9 25.8394C296.701 23.5416 285.267 23.082 285.267 23.082L285.267 23.082Z" fill="#2F2E41"/>
<path d="M113.451 39.4875C125.476 39.4875 135.225 31.259 135.225 21.1086C135.225 10.9582 125.476 2.72974 113.451 2.72974C101.425 2.72974 91.6768 10.9582 91.6768 21.1086C91.6768 31.259 101.425 39.4875 113.451 39.4875Z" fill="#FFB6B6"/>
<path d="M143.146 161.843L122.863 278.348H97.4144L100.798 211.844L102.579 176.876L97.4144 160.231C97.4144 160.231 95.0595 156.532 93.0757 152.047C90.8395 146.986 89.0734 140.918 91.6954 138.041C92.6601 136.98 95.1683 136.195 98.5769 135.611C100.66 135.252 103.084 134.972 105.701 134.755C120.75 133.498 142.157 134.283 142.157 134.283L142.701 149.441L143.003 157.905L143.146 161.843Z" fill="#2F2E41"/>
<path d="M18.4639 281.975L31.4315 287.854L64.4718 248.435L45.3331 239.757L18.4639 281.975Z" fill="#FFB6B6"/>
<path d="M63.0481 301.874C63.0865 302.631 62.1204 304.58 61.6956 305.247C60.3897 307.299 57.3607 308.068 54.93 306.966L14.7729 288.755C13.1148 288.003 12.4927 286.259 13.3836 284.859L14.2818 283.448C14.2818 283.448 14.995 278.306 22.4124 274.933C22.4124 274.933 24.8901 281.332 36.5667 278.365L40.9866 275.956L50.8295 293.317L59.2222 298.327C61.0583 299.423 62.9517 299.977 63.0479 301.874L63.0481 301.874Z" fill="#2F2E41"/>
<path d="M143.003 157.905L132.238 176.124L100.798 211.844L49.0408 270.652L26.625 260.488L88.0692 173.164L92.858 156.435C92.858 156.435 92.858 154.627 93.0757 152.047C93.5012 146.94 94.7775 138.801 98.577 135.611C99.0915 135.177 99.6506 134.834 100.259 134.604C101.402 134.17 103.302 134.275 105.701 134.755C115.724 136.776 134.429 145.457 142.701 149.441L143.003 157.905H143.003Z" fill="#2F2E41"/>
<path d="M298.835 301.999L286.179 301.998L280.158 260.792L298.838 260.793L298.835 301.999Z" fill="#A0616A"/>
<path d="M255.473 301.757C255.079 302.317 254.871 304.125 254.871 304.776C254.871 306.779 256.794 308.402 259.167 308.402H298.362C299.98 308.402 301.293 307.295 301.293 305.929V304.551C301.293 304.551 303.231 300.411 299.24 295.309C299.24 295.309 294.278 299.304 286.864 293.047L284.678 289.704L268.853 299.473L260.081 300.384C258.162 300.584 256.46 300.353 255.473 301.757H255.473H255.473Z" fill="#2F2E41"/>
<path d="M348.694 289.41L336.994 293.484L312.807 257.332L330.075 251.318L348.694 289.41Z" fill="#A0616A"/>
<path d="M308.501 303.147C308.39 303.791 309.015 305.53 309.309 306.132C310.214 307.983 312.725 308.865 314.918 308.101L351.15 295.481C352.646 294.96 353.359 293.514 352.741 292.251L352.119 290.978C352.119 290.978 352.04 286.527 346.044 283.095C346.044 283.095 343.264 288.386 333.582 284.988L330.051 282.602L319.837 296.728L312.14 300.395C310.456 301.197 308.779 301.532 308.501 303.147L308.501 303.147H308.501Z" fill="#2F2E41"/>
<path d="M304.643 160.649L299.478 177.294L300.853 204.303L303.134 249.163L303.198 250.429L303.455 255.473L304.642 278.765H279.194L267.865 213.694L258.911 162.261L259.851 136.07L259.9 134.701C259.9 134.701 305.414 133.03 310.361 138.459C315.309 143.887 304.642 160.649 304.642 160.649H304.643Z" fill="#2F2E41"/>
<path d="M340.05 262.02L335.736 263.904L319.781 270.873L317.446 271.892L303.455 255.473L267.865 213.694L258.911 162.261L259.851 136.07C263.878 134.989 267.098 134.546 268.731 135.189C276.082 138.091 275.731 157.116 275.731 157.116L280.208 173.903L300.853 204.303L340.05 262.02Z" fill="#2F2E41"/>
<path d="M248.035 267.157C247.707 266.311 245.225 266.683 244.987 265.927C244.749 265.173 247.131 264.541 248.958 262.416C249.287 262.033 251.363 259.619 250.567 258.604C249.058 256.679 238.558 261.473 236.038 258.783C235.485 258.192 235.257 257.179 233.61 255.293C232.954 254.542 232.534 254.18 232.031 254.191C231.318 254.206 231.063 254.959 229.943 256.323C228.262 258.368 227.656 258.111 226.549 259.787C225.727 261.031 225.629 261.826 225.037 261.872C224.198 261.939 223.852 260.39 222.827 260.33C221.781 260.269 220.735 261.799 220.216 262.995C219.243 265.238 219.846 266.953 219.979 268.662C220.124 270.52 219.783 273.239 217.392 276.729L194.841 307.056C199.684 300.874 213.432 284.014 218.971 277.83C220.57 276.045 222.288 274.253 224.933 273.915C227.479 273.591 230.578 274.654 234.902 274.592C235.407 274.585 236.813 274.55 237.155 273.921C237.437 273.401 236.735 272.949 236.991 272.46C237.333 271.805 238.874 272.086 240.974 271.651C242.454 271.344 243.46 270.837 244.325 270.4C244.586 270.269 248.471 268.283 248.035 267.157H248.035Z" fill="#F2F2F2"/>
<path d="M188.968 274.238C188.381 274.129 187.882 275.265 187.373 275.145C186.866 275.026 187.186 273.857 186.478 272.488C186.35 272.241 185.545 270.684 184.725 270.721C183.17 270.791 182.928 276.523 180.637 276.791C180.134 276.85 179.479 276.652 177.907 276.79C177.282 276.845 176.95 276.915 176.811 277.126C176.614 277.426 176.978 277.749 177.448 278.607C178.152 279.893 177.828 280.07 178.483 281.012C178.969 281.712 179.403 281.981 179.259 282.24C179.056 282.607 178.055 282.304 177.725 282.711C177.387 283.126 177.975 284.001 178.521 284.561C179.545 285.612 180.716 285.857 181.748 286.295C182.87 286.771 184.353 287.696 185.692 289.694L196.82 307.787C194.623 303.997 188.786 293.437 186.788 289.358C186.212 288.18 185.665 286.951 186.232 285.758C186.778 284.61 188.29 283.633 189.502 281.823C189.644 281.612 190.029 281.02 189.762 280.697C189.541 280.43 189.076 280.59 188.865 280.343C188.583 280.012 189.191 279.455 189.544 278.46C189.792 277.758 189.788 277.195 189.784 276.71C189.782 276.564 189.748 274.382 188.968 274.238L188.968 274.238Z" fill="#F2F2F2"/>
<path d="M200.069 278.652L200.419 275.926L200.634 275.755C201.626 274.963 202.247 274.124 202.48 273.261C202.517 273.124 202.546 272.985 202.575 272.844C202.691 272.283 202.836 271.586 203.474 270.863C203.831 270.46 204.776 269.548 205.751 269.867C206.014 269.95 206.192 270.094 206.315 270.246C206.346 270.22 206.378 270.194 206.412 270.165C206.833 269.819 207.127 269.693 207.411 269.571C207.629 269.477 207.854 269.381 208.235 269.124C208.402 269.011 208.536 268.909 208.649 268.824C208.991 268.566 209.428 268.265 210.027 268.384C210.663 268.531 210.88 269.042 211.025 269.381C211.283 269.985 211.362 270.4 211.415 270.675C211.434 270.776 211.456 270.889 211.473 270.926C211.612 271.222 213.357 271.298 214.014 271.33C215.49 271.398 216.767 271.457 217.074 272.31C217.295 272.92 216.835 273.586 215.669 274.341C215.306 274.576 214.943 274.738 214.627 274.859C214.822 275.014 214.977 275.225 214.986 275.513C215.007 276.194 214.18 276.716 212.528 277.068C212.117 277.157 211.565 277.274 210.842 277.244C210.501 277.23 210.203 277.186 209.949 277.145C209.911 277.267 209.842 277.394 209.716 277.515C209.349 277.87 208.755 277.961 207.948 277.76C207.058 277.551 206.355 277.266 205.734 277.016C205.192 276.798 204.725 276.612 204.333 276.561C203.603 276.475 202.923 276.855 202.109 277.361L200.069 278.652H200.069H200.069Z" fill="#F2F2F2"/>
<path d="M205.891 263.126L202.678 263.532L202.428 263.401C201.269 262.791 200.15 262.497 199.101 262.526C198.935 262.53 198.768 262.542 198.599 262.554C197.927 262.601 197.092 262.66 196.101 262.322C195.548 262.133 194.264 261.593 194.382 260.716C194.41 260.48 194.53 260.299 194.674 260.159C194.636 260.141 194.597 260.121 194.556 260.101C194.053 259.845 193.834 259.636 193.622 259.436C193.459 259.281 193.292 259.122 192.9 258.876C192.729 258.768 192.578 258.685 192.452 258.615C192.07 258.401 191.613 258.12 191.598 257.6C191.605 257.045 192.136 256.737 192.487 256.533C193.114 256.169 193.57 255.999 193.872 255.886C193.982 255.845 194.107 255.799 194.145 255.776C194.448 255.587 194.093 254.143 193.964 253.599C193.667 252.376 193.41 251.318 194.309 250.851C194.953 250.517 195.832 250.723 196.993 251.483C197.355 251.72 197.633 251.975 197.852 252.203C197.98 252.004 198.183 251.824 198.51 251.744C199.285 251.554 200.093 252.096 200.916 253.356C201.121 253.669 201.396 254.09 201.545 254.688C201.615 254.97 201.64 255.224 201.658 255.442C201.807 255.442 201.971 255.467 202.141 255.538C202.641 255.749 202.896 256.211 202.87 256.92C202.856 257.7 202.708 258.346 202.579 258.916C202.467 259.414 202.372 259.843 202.413 260.176C202.499 260.793 203.107 261.252 203.894 261.789L205.891 263.126H205.891V263.126Z" fill="#F2F2F2"/>
<path d="M206.324 254.983L206.674 252.258L206.888 252.086C207.881 251.295 208.502 250.456 208.734 249.592C208.771 249.455 208.8 249.316 208.83 249.175C208.946 248.614 209.09 247.918 209.728 247.194C210.086 246.791 211.031 245.88 212.005 246.198C212.268 246.281 212.446 246.425 212.569 246.578C212.6 246.551 212.632 246.525 212.666 246.496C213.087 246.151 213.382 246.024 213.665 245.902C213.883 245.809 214.108 245.712 214.489 245.455C214.656 245.342 214.79 245.241 214.903 245.155C215.245 244.898 215.683 244.596 216.282 244.715C216.917 244.862 217.135 245.373 217.279 245.712C217.537 246.316 217.617 246.731 217.669 247.007C217.688 247.107 217.71 247.221 217.727 247.258C217.866 247.553 219.611 247.63 220.268 247.662C221.744 247.729 223.021 247.788 223.329 248.641C223.549 249.251 223.09 249.917 221.924 250.672C221.561 250.907 221.198 251.069 220.881 251.19C221.076 251.346 221.231 251.557 221.24 251.844C221.262 252.525 220.435 253.047 218.782 253.399C218.371 253.488 217.819 253.605 217.096 253.575C216.756 253.561 216.458 253.517 216.203 253.476C216.166 253.598 216.096 253.726 215.971 253.846C215.603 254.202 215.009 254.292 214.203 254.092C213.313 253.882 212.609 253.597 211.989 253.347C211.447 253.129 210.979 252.943 210.587 252.892C209.858 252.806 209.177 253.186 208.363 253.692L206.324 254.983H206.324Z" fill="#F2F2F2"/>
<path d="M195.907 307.212L195.339 306.738L195.349 306.065L195.339 306.738L194.55 306.668C194.553 306.605 194.548 306.458 194.542 306.23C194.512 304.976 194.418 301.159 195.047 295.295C195.487 291.202 196.222 287.047 197.231 282.944C198.242 278.834 199.291 275.776 200.134 273.318C200.77 271.464 201.411 269.706 202.038 267.994C203.71 263.418 205.289 259.096 206.267 254.165C206.486 253.065 206.94 250.774 206.01 248.07C205.47 246.502 204.546 245.025 203.262 243.684L204.505 242.837C205.921 244.319 206.944 245.954 207.543 247.695C208.575 250.693 208.08 253.19 207.842 254.389C206.846 259.406 205.252 263.77 203.563 268.39C202.94 270.096 202.3 271.847 201.667 273.693C200.832 276.128 199.792 279.159 198.794 283.216C197.796 287.271 197.071 291.375 196.636 295.417C196.015 301.207 196.108 304.966 196.139 306.201C196.155 306.861 196.158 306.999 195.907 307.212V307.212H195.907Z" fill="#F2F2F2"/>
<path d="M199.853 245.235C199.789 245.223 199.724 245.21 199.66 245.193C198.349 244.883 197.298 243.982 196.534 242.514C196.177 241.824 196.093 241.098 195.924 239.649C195.898 239.426 195.781 238.296 195.925 236.799C196.018 235.82 196.143 235.427 196.458 235.118C196.808 234.774 197.28 234.578 197.779 234.479C197.793 234.349 197.843 234.222 197.943 234.102C198.353 233.604 199.04 233.809 199.413 233.915C199.6 233.972 199.834 234.045 200.098 234.082C200.511 234.142 200.758 234.081 201.132 233.99C201.49 233.902 201.935 233.793 202.549 233.802C203.763 233.816 204.661 234.277 204.957 234.428C206.517 235.219 207.055 236.481 207.678 237.942C207.802 238.235 208.213 239.294 208.309 240.657C208.378 241.641 208.225 242.043 208.05 242.331C207.692 242.923 207.145 243.197 205.786 243.775C204.366 244.38 203.653 244.682 203.069 244.838C201.71 245.198 200.857 245.424 199.853 245.235V245.235Z" fill="#F2F2F2"/>
<path d="M382 308.51C382 308.781 381.74 309 381.419 309H-21V308.02H381.419C381.74 308.02 382 308.239 382 308.51Z" fill="#E6E6E6"/>
<path d="M90.9531 38.031L115.689 48.0529C115.689 48.0529 141.909 113.613 141.909 116.953C141.909 120.294 149.33 122.382 144.878 126.14C140.425 129.898 153.165 133.081 146.3 136.083C139.436 139.085 96.6132 155.506 91.8515 154.025C78.7186 149.941 92.408 134.934 92.408 134.934C92.408 134.934 82.5429 128.228 84.027 124.887C85.5112 121.547 75.1221 57.6572 75.1221 57.6572L90.9531 38.031V38.031Z" fill="#E6E6E6"/>
<path d="M112.121 25.5107L114.922 30.2385C114.922 30.2385 117.722 21.7285 122.203 19.8374C126.684 17.9462 127.244 15.1096 127.244 15.1096C127.244 15.1096 132.846 21.2557 136.766 19.8374C140.687 18.419 142.368 17.4735 137.887 11.8001C133.406 6.12672 134.526 8.9634 134.526 8.9634C134.526 8.9634 130.605 4.23559 131.165 5.65393C131.725 7.07227 127.804 1.87168 127.804 3.29002C127.804 4.70836 125.004 0.453337 125.004 1.87168C125.004 3.29002 113.241 -1.43778 114.922 0.453343C116.602 2.34447 104.84 -3.3289 99.2384 4.23559C93.6372 11.8001 85.8706 10.4012 88.6337 15.1193C91.3968 19.8374 90.2765 32.6024 90.2765 32.6024H98.0013C98.0013 32.6024 105.96 19.8374 112.121 25.5107V25.5107Z" fill="#2F2E41"/>
<path d="M276.968 65.5911L277.421 65.483L299.725 60.1626L317.535 80.624L305.662 123.217L310.114 140.338C310.114 140.338 273.999 132.404 259.653 139.085C259.653 139.085 258.663 135.278 259.653 133.423C260.642 131.569 262.126 123.852 260.642 120.403C259.158 116.953 263.61 100.668 263.61 100.668C263.61 100.668 262.126 89.8107 268.558 84.3822C274.989 78.9537 276.968 65.5911 276.968 65.5911Z" fill="#6C63FF"/>
<path d="M256.711 142.502L178.337 109.626C177.947 109.462 177.607 109.237 177.324 108.956L165.096 96.7911C164.285 95.9843 164.109 94.8457 164.648 93.8904L187.579 53.2833C187.98 52.5717 188.728 52.0463 189.631 51.8416C190.534 51.6373 191.492 51.7757 192.263 52.2216L247.535 84.2237C248.669 84.8805 249.176 86.0716 248.796 87.1878L237.574 120.15C237.268 121.052 237.659 122.036 238.548 122.599L260.747 136.652C261.943 137.409 262.356 138.789 261.73 139.934L261.027 141.219C260.663 141.885 260.011 142.386 259.191 142.63C258.843 142.734 258.485 142.785 258.128 142.785C257.642 142.785 257.16 142.69 256.711 142.502V142.502Z" fill="#6C63FF"/>
<path d="M256.086 134.5L234.269 119.179C234.081 119.045 233.932 118.883 233.828 118.703C233.631 118.365 233.591 117.96 233.739 117.588L246.172 86.8835C246.493 86.0901 246.147 85.2048 245.326 84.7288L193.529 54.7967C192.999 54.4877 192.336 54.3917 191.713 54.5295C191.085 54.6673 190.565 55.0264 190.278 55.5149L168.441 92.9426C168.11 93.5063 168.135 94.1535 168.501 94.6922C168.545 94.7674 168.6 94.8384 168.664 94.9052L179.647 107.14C179.859 107.374 180.136 107.566 180.448 107.696L253.696 137.632C254.003 137.757 254.335 137.82 254.666 137.82C255.24 137.82 255.814 137.632 256.239 137.269C256.289 137.223 256.338 137.181 256.388 137.131C256.734 136.776 256.912 136.321 256.887 135.857C256.858 135.331 256.566 134.838 256.086 134.5Z" fill="#F2F2F2"/>
<path d="M177.034 90.6459C177.215 90.6459 177.389 90.5619 177.476 90.4161L195.231 60.642C195.354 60.4359 195.256 60.1849 195.012 60.0813C194.767 59.9771 194.471 60.0605 194.348 60.2664L176.593 90.0406C176.47 90.2467 176.568 90.4977 176.812 90.6013C176.883 90.6316 176.959 90.6459 177.034 90.6459Z" fill="#6C63FF"/>
<path d="M186.434 95.657C186.615 95.657 186.789 95.573 186.876 95.4272L204.631 65.653C204.754 65.4469 204.656 65.1959 204.412 65.0923C204.167 64.9879 203.87 65.0717 203.748 65.2775L185.992 95.0516C185.869 95.2577 185.968 95.5087 186.212 95.6123C186.283 95.6427 186.359 95.657 186.434 95.657Z" fill="#6C63FF"/>
<path d="M194.349 99.8327C194.53 99.8327 194.705 99.7487 194.792 99.6029L212.547 69.8288C212.67 69.6226 212.572 69.3716 212.328 69.2681C212.083 69.1639 211.786 69.2473 211.663 69.4532L193.908 99.2273C193.785 99.4335 193.883 99.6845 194.127 99.788C194.199 99.8184 194.275 99.8327 194.349 99.8327V99.8327Z" fill="#6C63FF"/>
<path d="M166.326 95.7996C172.465 94.2687 178.377 95.7014 179.531 98.9993C180.684 102.297 176.643 106.21 170.502 107.741C168.058 108.381 165.469 108.518 162.95 108.14L136.842 114.349L133.651 103.945L159.728 98.9289C161.6 97.4559 163.862 96.3829 166.326 95.7996Z" fill="#FFB6B6"/>
<path d="M120.148 58.9297L116.056 100.25L152.71 100.583L159.823 109.829C159.823 109.829 115.397 131.541 102.057 120.447C88.7168 109.352 82.7812 62.6655 94.6416 54.6741C106.502 46.6826 120.148 58.9297 120.148 58.9297Z" fill="#E6E6E6"/>
<path d="M240.22 133.536C233.837 133.13 228.911 130.021 229.217 126.593C229.524 123.164 234.946 120.714 241.332 121.121C243.885 121.254 246.364 121.901 248.56 123.008L275.58 125.016L274.194 135.698L247.704 132.585C245.335 133.402 242.769 133.728 240.22 133.536Z" fill="#A0616A"/>
<path d="M319.24 83.3538L314.825 129.903C314.825 129.903 313.435 139.934 294.926 139.305C276.417 138.676 251.832 133.745 251.832 133.745L252.72 122.882L273.409 123.83C273.409 123.83 282.886 121.429 284.876 122.668C286.867 123.908 286.09 125.5 287.852 123.484C289.614 121.468 288.592 120.312 290.349 121.925C292.107 123.539 292.629 126.459 293.387 122.779C294.144 119.099 296.03 119.755 296.03 119.755L294.923 85.8536C294.923 85.8536 299.421 69.4542 309.856 74.3961C320.292 79.3379 319.24 83.3538 319.24 83.3538Z" fill="#6C63FF"/>
</g>
<defs>
<clipPath id="clip0_10_1034">
<rect width="403" height="309" fill="white" transform="translate(-21)"/>
</clipPath>
</defs>
</svg>
